{"glyphs":{"0":{"ha":868,"x_min":60,"x_max":795,"o":"m 60 522 q 73 665 60 595 q 207 943 107 836 q 427 1048 304 1048 q 526 1029 477 1048 q 709 860 635 985 q 795 522 795 713 q 781 380 795 450 q 648 102 747 210 q 427 -2 550 -2 q 329 17 377 -2 q 146 184 220 60 q 60 522 60 331 m 182 520 q 184 462 182 491 q 271 210 198 309 q 427 120 339 120 q 463 124 445 120 q 606 243 547 144 q 674 520 674 359 q 671 579 674 549 q 584 833 658 734 q 427 924 516 924 q 392 920 410 924 q 250 800 309 900 q 182 520 182 684 z "},"1":{"ha":694,"x_min":74,"x_max":544,"o":"m 544 993 q 540 957 544 991 q 431 61 446 168 q 429 54 430 58 q 368 0 417 0 q 334 10 349 0 q 305 73 305 31 q 407 844 305 77 q 353 791 385 823 q 178 623 228 666 q 132 601 158 602 q 107 605 119 601 q 74 659 74 618 q 98 708 74 685 q 397 993 98 708 q 483 1047 458 1047 q 515 1039 501 1047 q 544 993 544 1023 z "},"2":{"ha":791,"x_min":119,"x_max":694,"o":"m 602 559 q 286 115 525 444 l 627 115 q 665 106 649 115 q 694 54 694 90 q 692 43 694 49 q 625 0 680 0 l 189 0 q 159 5 173 0 q 119 63 119 18 q 166 150 123 92 q 177 165 169 153 q 520 639 410 479 q 549 684 538 664 q 570 763 570 722 q 528 872 570 823 q 410 928 480 928 q 301 886 349 928 q 246 766 246 838 q 288 654 246 701 q 306 612 305 631 q 301 591 306 602 q 248 565 287 565 q 151 647 190 566 q 121 766 121 709 q 125 806 121 785 q 216 972 140 903 q 405 1048 298 1048 q 442 1045 423 1048 q 610 955 541 1031 q 685 764 685 873 q 602 559 685 669 z "},"3":{"ha":829,"x_min":49,"x_max":759,"o":"m 117 985 q 126 1018 117 1002 q 178 1047 144 1047 l 664 1047 q 695 1038 681 1047 q 725 985 725 1020 q 708 943 725 959 q 471 751 620 864 q 673 623 592 722 q 759 382 759 517 q 751 307 759 345 q 624 94 725 179 q 379 3 519 7 l 372 3 q 164 71 265 3 q 56 184 86 123 q 49 213 49 196 q 58 245 49 230 q 110 275 75 275 q 158 250 137 274 q 379 122 254 123 q 397 123 388 122 q 568 203 499 130 q 639 380 639 277 q 638 399 639 390 q 557 569 631 500 q 379 640 483 640 q 277 600 338 640 q 268 593 273 596 q 189 551 214 551 q 167 555 178 551 q 136 605 136 567 q 181 677 137 642 l 499 924 l 178 924 q 145 934 161 924 q 117 985 117 952 z "},"4":{"ha":829,"x_min":87,"x_max":709,"o":"m 159 985 q 168 1015 160 1001 q 220 1047 185 1047 q 252 1038 237 1047 q 281 990 281 1021 q 220 488 281 990 q 572 488 220 488 l 587 610 q 596 639 589 625 q 648 671 614 671 q 679 663 664 671 q 709 610 709 646 q 642 61 650 109 q 641 58 642 60 q 579 0 630 0 q 546 10 561 0 q 517 73 517 30 q 556 380 517 87 l 154 380 q 121 388 136 380 q 88 448 87 406 q 96 508 88 452 q 159 985 158 977 z "},"5":{"ha":752,"x_min":-6,"x_max":704,"o":"m -6 204 q 3 235 -6 220 q 55 265 20 265 q 102 241 83 264 q 104 239 103 240 q 325 113 201 113 q 344 114 334 113 q 514 195 445 121 q 584 371 584 269 q 583 392 584 381 q 505 557 575 489 q 335 628 433 628 q 291 618 322 628 q 233 601 237 601 q 201 610 216 601 q 170 662 170 629 q 223 995 170 670 q 233 1018 225 1007 q 288 1047 252 1047 l 563 1047 q 595 1038 580 1047 q 625 985 625 1019 q 615 954 625 968 q 562 924 597 924 l 336 924 l 311 753 l 325 754 q 410 745 368 754 q 617 616 535 715 q 704 374 704 511 q 695 290 704 330 q 558 72 667 155 q 325 -6 455 -6 q 176 24 250 -6 q 1 175 59 73 q -6 204 -6 186 z "},"6":{"ha":752,"x_min":111,"x_max":744,"o":"m 205 985 q 214 1015 206 1001 q 266 1047 231 1047 q 298 1038 282 1047 q 327 990 327 1021 l 279 588 q 429 627 349 627 q 484 622 456 627 q 662 522 588 602 q 744 316 744 432 q 738 256 744 286 q 631 74 716 148 q 431 -2 542 -2 q 370 4 401 -2 q 191 106 265 26 q 111 302 111 193 q 123 415 111 334 q 205 985 176 755 m 235 313 q 294 176 235 236 q 429 119 352 119 q 570 178 511 119 q 628 313 628 235 q 565 451 626 390 q 425 507 504 507 q 293 452 350 507 q 235 313 235 394 z "},"7":{"ha":752,"x_min":69,"x_max":677,"o":"m 69 985 q 79 1018 69 1002 q 130 1047 97 1047 l 507 1047 q 541 1036 526 1047 q 565 985 565 1017 l 511 524 l 616 524 q 648 514 633 524 q 677 463 677 496 q 668 431 677 446 q 614 401 650 401 l 496 401 q 453 61 457 87 q 451 50 452 56 q 391 0 438 0 q 357 10 372 0 q 328 73 328 31 q 371 400 328 73 l 273 400 q 241 410 256 400 q 212 461 212 428 q 222 494 212 478 q 273 522 240 522 l 387 522 l 440 924 l 130 924 q 98 934 113 924 q 69 985 69 952 z "},"8":{"ha":772,"x_min":85,"x_max":718,"o":"m 85 311 q 104 414 85 363 q 232 574 140 515 q 218 587 225 580 q 136 783 136 663 q 138 808 136 795 q 222 979 147 909 q 401 1050 298 1050 q 429 1049 415 1050 q 597 964 528 1039 q 670 781 670 886 q 666 736 670 759 q 570 575 649 640 q 642 513 610 549 q 718 311 718 424 q 713 254 718 283 q 604 75 691 146 q 401 1 514 1 q 350 6 376 1 q 170 104 245 24 q 85 311 85 193 m 209 313 q 267 176 209 234 q 401 117 323 117 q 544 177 484 117 q 602 313 602 235 q 541 449 601 390 q 401 506 481 506 q 267 450 326 506 q 209 313 209 392 m 249 782 q 286 682 249 725 q 401 631 332 631 q 507 673 460 631 q 557 783 557 719 q 517 886 557 841 q 401 937 470 937 q 300 897 345 937 q 249 782 249 850 z "},"9":{"ha":733,"x_min":69,"x_max":626,"o":"m 343 497 q 133 592 210 498 q 69 779 69 670 q 130 963 69 886 q 343 1059 206 1059 q 372 1058 357 1059 q 549 975 475 1048 q 626 799 624 899 l 626 792 q 625 751 626 781 q 540 61 551 132 q 539 58 540 60 q 477 0 528 0 q 444 10 458 0 q 415 73 415 30 q 422 146 415 92 q 473 530 445 302 q 343 497 416 497 m 185 779 q 229 669 185 717 q 346 616 278 616 q 458 662 410 616 q 511 779 511 711 q 466 890 511 842 q 346 942 416 942 q 237 899 285 942 q 185 779 185 849 z "}," ":{"ha":541,"x_min":0,"x_max":0,"o":""},"!":{"ha":424,"x_min":203,"x_max":435,"o":"m 203 61 q 212 94 203 79 q 264 123 231 123 q 297 114 282 123 q 327 61 327 96 q 317 29 327 44 q 264 0 299 0 q 232 9 248 0 q 203 61 203 28 m 243 305 q 333 979 243 305 q 352 1024 337 1008 q 387 1039 366 1039 q 419 1029 408 1039 q 435 989 435 1015 q 434 977 435 983 l 354 308 q 340 264 351 282 q 291 231 321 231 q 277 233 283 231 q 243 305 243 246 z "},"\"":{"ha":564,"x_min":153,"x_max":419,"o":"m 258 825 q 248 702 258 806 q 244 682 247 692 q 201 646 231 646 q 182 650 191 646 q 153 697 153 661 l 163 819 q 167 838 163 829 q 216 875 179 875 q 230 873 223 875 q 258 825 258 863 m 419 825 q 409 702 419 806 q 404 682 408 692 q 361 646 391 646 q 342 650 352 646 q 313 697 313 661 l 323 819 q 327 836 324 827 q 376 875 338 875 q 391 873 384 875 q 419 825 419 863 z "},"#":{"ha":829,"x_min":2,"x_max":815,"o":"m 332 125 q 332 125 332 125 q 410 333 332 125 l 263 333 l 171 90 q 122 52 151 53 q 101 56 111 52 q 73 102 73 68 q 77 125 73 114 q 77 125 77 125 q 155 333 77 125 l 59 333 q 38 336 48 333 q 2 386 2 346 q 8 408 2 398 q 59 432 24 432 l 194 432 l 257 598 l 117 598 q 96 601 106 598 q 60 651 60 611 q 66 673 60 663 q 117 697 81 697 l 295 697 l 380 920 q 428 957 394 956 q 452 950 440 957 q 477 907 477 936 q 473 883 477 897 l 401 697 l 550 697 q 635 920 627 901 q 636 923 635 921 q 682 957 650 957 q 706 950 695 957 q 732 907 732 936 q 728 883 732 895 l 656 697 l 760 697 q 786 692 774 697 q 815 646 815 681 q 814 637 814 642 q 759 598 804 598 l 619 598 l 555 432 l 702 432 q 728 427 716 432 q 758 380 758 416 q 756 372 757 376 q 701 333 746 333 l 517 333 l 425 90 q 377 52 406 53 q 356 56 366 52 q 328 102 328 68 q 332 125 328 115 m 448 432 l 512 598 l 364 598 l 301 432 l 448 432 z "},"$":{"ha":617,"x_min":90,"x_max":459,"o":"m 95 355 q 90 378 90 367 q 96 400 90 390 q 138 425 109 425 q 180 400 162 425 q 258 342 220 343 q 308 357 286 342 q 342 425 342 382 q 328 479 342 459 q 273 519 317 492 q 159 667 160 574 q 178 741 159 706 q 273 820 209 800 q 279 869 275 836 q 290 943 287 918 q 296 966 291 955 q 345 996 312 996 q 373 988 359 996 q 399 941 399 972 l 382 812 q 454 751 427 791 q 459 728 459 731 q 453 704 459 715 q 411 679 439 679 q 375 695 389 680 q 319 728 351 728 q 287 719 302 728 q 258 667 258 701 q 259 660 258 664 q 309 605 262 630 q 345 584 331 593 q 446 425 446 521 q 420 333 446 376 q 311 249 382 271 q 297 145 304 207 q 292 109 293 114 q 235 53 282 54 q 208 61 220 53 q 180 119 180 79 q 197 256 180 130 q 187 260 193 258 q 95 355 126 292 z "},"%":{"ha":1157,"x_min":120,"x_max":1055,"o":"m 120 743 q 181 938 121 856 q 313 1010 237 1010 q 448 935 390 1008 q 506 743 506 857 q 446 549 505 629 q 313 477 391 477 q 179 551 237 479 q 120 743 120 629 m 220 743 q 245 631 220 679 q 313 578 272 578 q 368 609 343 578 q 407 743 407 658 q 383 854 407 806 q 313 909 355 909 q 259 878 283 908 q 220 743 220 829 m 669 269 q 730 463 670 381 q 863 535 785 535 q 997 460 939 533 q 1055 269 1055 381 q 994 74 1055 155 q 863 2 939 2 q 728 76 785 3 q 669 269 669 154 m 769 267 q 793 157 769 204 q 863 102 821 102 q 918 134 892 103 q 956 267 956 184 q 932 379 956 332 q 863 433 905 433 q 808 403 833 433 q 769 267 769 354 m 310 68 q 792 975 310 68 q 798 983 794 979 q 838 1004 814 1004 q 852 1002 845 1004 q 883 958 883 994 q 875 928 883 943 q 844 869 869 916 q 394 25 408 57 q 349 -3 376 -3 q 328 1 338 -3 q 303 38 303 13 q 310 68 303 51 z "},"&":{"ha":1013,"x_min":159,"x_max":836,"o":"m 775 178 q 810 122 798 142 q 836 62 836 81 q 830 38 836 50 q 782 10 816 10 q 758 17 770 10 q 708 75 736 29 q 700 87 703 83 q 652 50 680 67 q 472 1 571 1 q 431 4 452 1 q 239 102 317 18 q 159 313 159 191 q 186 441 159 378 q 349 619 233 552 q 286 817 287 713 q 287 826 286 821 q 366 984 295 919 q 532 1050 437 1050 q 686 987 623 1050 q 753 817 753 920 q 682 659 747 728 q 522 559 626 603 l 703 286 q 714 330 713 328 q 741 369 719 355 q 769 377 754 377 q 791 371 781 377 q 819 318 819 355 q 775 178 819 259 m 526 945 q 441 916 479 945 q 391 809 391 875 q 398 766 391 788 q 463 648 410 727 q 478 653 470 650 q 610 732 569 688 q 648 823 644 768 q 621 901 648 867 q 526 945 585 945 m 263 311 q 326 164 265 229 q 477 102 390 102 q 513 104 494 102 q 642 173 595 117 l 406 530 q 319 465 357 511 q 263 311 263 395 z "},"'":{"ha":318,"x_min":113,"x_max":219,"o":"m 219 825 q 209 702 219 806 q 204 682 208 692 q 161 646 191 646 q 141 650 151 646 q 113 692 113 661 q 123 819 113 695 q 127 836 124 827 q 176 875 138 875 q 191 873 184 875 q 219 825 219 863 z "},"(":{"ha":868,"x_min":103,"x_max":742,"o":"m 640 -92 q 441 -46 538 -90 q 204 156 297 20 q 103 475 103 304 q 144 684 103 585 q 355 935 209 839 q 698 1036 510 1036 q 718 1030 708 1036 q 742 990 742 1016 q 736 968 742 979 q 696 944 723 944 q 551 925 621 944 q 296 760 393 882 q 195 471 195 634 q 210 355 195 412 q 362 113 248 210 q 644 0 484 9 q 663 -6 654 -1 q 688 -46 688 -20 q 682 -67 688 -57 q 640 -92 669 -92 z "},")":{"ha":887,"x_min":163,"x_max":802,"o":"m 267 1036 q 464 990 368 1034 q 701 788 608 924 q 802 469 802 640 q 802 439 802 455 q 684 130 792 269 q 428 -59 581 -3 q 208 -92 334 -92 q 188 -86 197 -92 q 163 -46 163 -72 q 170 -23 163 -34 q 210 0 183 0 l 221 0 q 364 20 294 0 q 610 184 515 62 q 710 473 710 311 q 695 589 710 532 q 543 831 658 734 q 262 944 421 935 q 242 949 252 945 q 218 990 218 963 q 223 1011 218 1001 q 267 1036 236 1036 z "},"*":{"ha":791,"x_min":196,"x_max":606,"o":"m 196 787 q 203 810 196 800 q 247 836 217 836 q 272 829 260 836 l 351 781 l 351 877 q 357 903 351 890 q 400 928 372 928 q 425 921 413 928 q 450 877 450 907 l 450 781 l 529 829 q 557 837 543 836 q 581 830 570 837 q 606 787 606 816 q 583 743 606 758 l 499 695 l 583 648 q 606 604 606 634 q 600 580 606 591 q 557 554 585 554 q 529 562 543 554 l 451 608 l 451 517 q 444 493 451 505 q 400 468 429 468 q 378 474 389 468 q 352 521 352 489 l 352 608 l 272 562 q 247 555 260 556 q 223 561 235 555 q 196 604 196 575 q 222 649 197 633 l 302 695 l 222 742 q 220 743 221 743 q 196 787 196 759 z "},"+":{"ha":656,"x_min":98,"x_max":559,"o":"m 379 536 q 379 416 379 536 l 504 416 q 530 411 518 416 q 559 364 559 399 q 557 351 559 358 q 503 317 545 317 l 379 317 l 379 186 q 374 159 379 171 q 328 131 361 131 q 319 132 323 132 q 280 188 280 142 l 280 317 l 155 317 q 136 319 145 317 q 98 370 98 328 q 104 392 98 382 q 155 416 119 416 l 280 416 l 280 536 q 281 552 280 544 q 333 592 290 592 q 355 586 345 592 q 379 536 379 570 z "},",":{"ha":386,"x_min":193,"x_max":330,"o":"m 205 61 q 214 94 205 79 q 267 123 233 123 q 299 114 284 123 q 330 52 330 94 q 314 -20 330 13 q 217 -81 284 -81 q 193 -58 194 -80 q 218 -31 193 -39 q 231 -27 224 -29 q 257 0 256 -18 q 236 7 246 2 q 205 61 205 25 z "},"-":{"ha":540,"x_min":90,"x_max":454,"o":"m 146 347 q 399 347 146 347 q 427 342 415 347 q 454 295 454 330 q 453 286 454 291 q 398 248 443 248 l 146 248 q 127 250 137 248 q 90 301 90 259 q 96 323 90 313 q 146 347 112 347 z "},".":{"ha":386,"x_min":201,"x_max":325,"o":"m 201 61 q 210 94 201 79 q 262 123 229 123 q 295 114 280 123 q 325 61 325 96 q 315 29 325 44 q 262 0 297 0 q 230 9 245 0 q 201 61 201 28 z "},"/":{"ha":695,"x_min":214,"x_max":695,"o":"m 222 45 q 235 75 223 47 q 601 989 587 963 q 646 1020 617 1019 q 669 1015 657 1020 q 695 972 695 1001 q 687 942 695 964 q 623 778 679 920 q 309 0 327 37 q 263 -33 292 -33 q 241 -28 252 -33 q 214 13 214 -15 q 222 45 214 24 z "},":":{"ha":362,"x_min":202,"x_max":326,"o":"m 202 420 q 211 453 202 438 q 263 483 229 483 q 296 473 281 483 q 326 420 326 456 q 316 389 326 404 q 263 359 298 359 q 231 369 246 359 q 202 420 202 387 m 202 201 q 211 234 202 219 q 263 264 229 264 q 296 254 281 264 q 326 201 326 237 q 316 170 326 184 q 263 140 298 140 q 231 150 246 140 q 202 201 202 168 z "},";":{"ha":333,"x_min":191,"x_max":328,"o":"m 203 420 q 212 453 203 438 q 264 483 230 483 q 296 473 281 483 q 326 420 326 456 q 317 389 326 404 q 264 359 298 359 q 231 369 247 359 q 203 420 203 387 m 203 201 q 212 234 203 219 q 264 264 230 264 q 296 254 281 264 q 328 192 328 235 q 313 122 328 153 q 214 60 283 60 q 191 83 192 60 q 216 109 191 102 q 229 113 222 111 q 255 140 254 122 q 233 149 243 142 q 203 201 203 166 z "},"<":{"ha":656,"x_min":85,"x_max":556,"o":"m 85 356 q 113 406 87 385 l 470 634 q 498 642 486 642 q 528 635 514 642 q 556 585 556 618 q 519 530 553 553 l 246 356 q 525 176 505 187 q 530 174 527 175 q 556 124 556 156 q 549 96 556 109 q 498 68 532 68 q 464 79 481 68 l 113 308 q 109 310 111 309 q 85 356 85 325 z "},"=":{"ha":559,"x_min":104,"x_max":468,"o":"m 160 294 q 412 294 160 294 q 439 289 427 294 q 468 242 468 277 q 467 233 467 238 q 412 195 456 195 l 160 195 q 144 196 152 195 q 104 248 104 204 q 110 270 104 260 q 160 294 125 294 m 160 511 l 412 511 q 439 507 427 511 q 468 460 468 495 q 467 451 467 456 q 412 412 456 412 l 160 412 q 140 415 150 412 q 104 465 104 425 q 110 487 104 477 q 160 511 125 511 z "},">":{"ha":656,"x_min":85,"x_max":556,"o":"m 556 356 q 530 308 553 326 l 178 79 q 142 68 161 68 q 113 76 127 68 q 85 124 85 92 q 115 175 85 159 l 393 356 l 123 530 q 119 532 121 531 q 85 585 85 551 q 93 614 85 600 q 142 642 110 642 q 172 634 153 642 l 530 406 q 534 402 532 404 q 556 356 556 384 z "},"?":{"ha":694,"x_min":129,"x_max":692,"o":"m 370 125 q 402 115 387 125 q 432 62 432 98 q 423 31 432 46 q 370 1 406 1 q 338 10 353 1 q 309 62 309 28 q 317 95 309 80 q 370 125 336 125 m 545 1006 q 623 944 589 982 q 692 756 692 863 q 607 547 692 659 q 551 484 595 528 q 455 376 475 404 q 453 372 454 374 q 437 300 441 352 q 422 247 435 258 q 382 232 408 233 q 361 237 372 232 q 333 281 334 250 l 333 303 q 371 444 334 385 q 463 545 393 476 q 481 564 473 555 q 577 755 577 665 q 534 865 577 816 q 416 920 486 920 q 307 878 355 920 q 253 762 253 831 q 295 646 253 697 q 313 604 313 623 q 308 583 313 593 q 256 557 294 557 q 158 639 197 557 q 129 758 129 701 q 132 801 129 779 q 230 970 149 901 q 412 1040 311 1040 q 545 1006 483 1040 z "},"@":{"ha":1172,"x_min":195,"x_max":1058,"o":"m 736 924 q 962 829 878 924 q 1058 511 1058 720 q 1034 237 1058 353 q 840 -2 983 -2 q 710 82 750 -1 q 692 63 702 73 q 553 -3 624 -3 q 477 19 509 -3 q 409 213 409 69 q 412 262 409 236 q 485 469 426 378 q 658 578 557 578 q 733 563 701 578 q 777 580 750 579 q 793 577 786 580 q 819 519 819 569 q 812 441 819 503 q 787 195 787 249 q 801 135 787 164 q 847 94 820 94 q 947 290 914 95 q 964 482 964 396 q 918 713 964 621 q 748 828 860 828 q 553 755 643 828 q 360 456 432 659 q 300 134 300 289 q 300 124 300 130 q 367 -107 303 -11 q 585 -225 446 -225 q 623 -222 604 -225 q 779 -119 715 -204 q 819 -98 793 -99 q 842 -103 831 -98 q 872 -148 872 -116 q 871 -158 872 -153 q 831 -220 863 -188 q 823 -229 827 -224 q 570 -331 727 -331 q 284 -189 386 -330 q 195 134 195 -64 q 237 420 195 275 q 422 768 300 631 q 736 924 564 924 m 650 167 q 671 234 659 180 q 713 481 699 351 q 688 490 698 488 q 661 486 674 490 q 550 369 594 468 q 511 191 511 281 q 511 184 511 188 q 553 102 513 102 q 604 125 574 102 q 650 167 635 147 z "},"A":{"ha":772,"x_min":-66,"x_max":664,"o":"m 475 1024 q 482 1006 479 1017 q 662 69 498 950 q 664 56 664 62 q 656 28 664 41 q 611 0 640 0 q 602 1 607 0 q 560 38 570 6 l 499 348 l 187 348 l 41 37 q 34 27 38 32 q -12 0 13 0 q -41 9 -28 0 q -66 54 -66 26 q -62 71 -66 62 q -16 173 -48 103 q 374 1013 310 885 q 426 1051 392 1050 q 475 1024 458 1050 m 407 815 l 239 461 l 476 461 l 407 815 z "},"B":{"ha":781,"x_min":44,"x_max":683,"o":"m 329 1061 q 623 845 617 1059 q 500 568 621 663 q 683 328 682 513 q 651 193 678 252 q 222 -5 559 -5 q 100 0 182 -5 q 71 9 84 0 q 44 66 44 28 l 168 1000 q 173 1022 168 1011 q 222 1053 187 1053 q 329 1061 278 1061 m 212 489 q 161 105 212 489 q 222 102 200 102 q 408 127 328 102 q 574 328 574 180 q 441 465 574 428 q 212 489 370 484 m 270 957 l 225 601 q 267 602 248 601 q 515 843 515 616 q 469 928 514 899 q 302 959 420 959 q 270 957 287 959 z "},"C":{"ha":769,"x_min":33,"x_max":689,"o":"m 583 810 q 547 877 568 847 q 430 947 494 947 q 347 916 389 947 q 209 718 267 859 q 149 433 149 573 q 192 210 149 299 q 323 111 240 111 q 410 146 362 111 q 538 309 484 202 q 542 317 539 313 q 587 344 557 344 q 614 337 602 344 q 642 290 642 321 q 635 263 642 278 q 530 106 591 171 q 312 0 429 0 q 282 2 297 0 q 109 126 178 17 q 33 430 33 248 q 64 650 33 538 q 215 940 113 825 q 440 1059 321 1059 q 537 1037 491 1059 q 684 853 635 988 q 689 828 689 840 q 682 801 689 814 q 635 774 665 774 q 583 810 604 776 z "},"D":{"ha":748,"x_min":35,"x_max":684,"o":"m 212 1053 q 282 1056 237 1056 q 487 1017 399 1056 q 684 675 684 932 q 679 570 684 621 q 430 96 648 241 q 90 0 285 0 q 62 8 74 0 q 35 66 35 26 q 158 1000 35 79 q 163 1020 159 1010 q 212 1053 177 1051 m 577 671 q 535 843 577 774 q 318 950 469 950 q 258 945 291 950 l 153 117 q 175 118 163 117 q 397 208 300 130 q 577 671 577 353 z "},"E":{"ha":749,"x_min":39,"x_max":713,"o":"m 216 1051 q 650 1051 216 1051 q 675 1048 664 1051 q 713 996 713 1036 q 708 976 713 985 q 654 941 694 947 l 263 941 l 216 570 l 497 570 q 528 564 513 570 q 561 513 561 549 q 557 494 561 503 q 502 458 545 465 l 202 458 l 157 112 l 543 112 q 572 107 559 112 q 608 56 608 93 q 605 39 608 47 q 549 0 594 7 l 97 0 q 66 9 80 0 q 39 66 39 27 q 161 1000 39 75 q 167 1019 163 1010 q 216 1051 181 1051 z "},"F":{"ha":724,"x_min":37,"x_max":711,"o":"m 214 1051 q 648 1051 214 1051 q 673 1047 661 1051 q 711 996 711 1035 q 706 976 711 985 q 652 941 692 947 l 262 941 l 215 569 l 497 569 q 527 563 513 569 q 559 513 559 548 q 555 494 559 503 q 501 458 543 465 l 201 458 l 148 56 q 147 53 148 55 q 93 0 140 0 q 63 8 77 0 q 37 58 37 24 q 130 780 37 111 q 161 1000 156 964 q 162 1008 161 1004 q 214 1051 172 1051 z "},"G":{"ha":785,"x_min":40,"x_max":709,"o":"m 403 532 q 655 532 403 532 q 682 525 669 532 q 709 477 709 509 q 707 461 709 468 q 690 397 700 429 q 532 111 637 224 q 317 0 428 0 q 287 2 302 0 q 115 126 184 18 q 40 430 40 248 q 70 646 40 537 q 220 939 118 823 q 447 1059 326 1059 q 543 1038 498 1059 q 690 853 640 989 q 696 828 696 841 q 688 801 696 814 q 642 774 672 774 q 625 777 633 774 q 590 810 598 785 l 587 815 q 557 875 575 848 q 436 947 507 947 q 353 916 395 947 q 215 718 273 859 q 155 433 155 573 q 199 210 155 299 q 330 111 247 111 q 452 184 387 111 q 582 420 533 275 q 401 422 408 420 q 340 483 342 431 q 346 501 342 493 q 403 532 361 532 z "},"H":{"ha":868,"x_min":41,"x_max":871,"o":"m 575 56 q 574 53 575 55 q 520 0 567 0 q 492 8 504 0 q 465 66 465 26 l 511 422 l 199 422 q 151 56 173 205 q 96 0 142 1 q 69 7 81 0 q 41 66 41 26 q 119 656 45 102 q 165 1000 165 998 q 174 1023 165 1010 q 219 1053 192 1053 q 243 1046 232 1053 q 272 1000 270 1030 l 214 532 q 526 534 323 534 q 550 722 532 589 q 587 1000 574 897 q 592 1020 588 1010 q 642 1053 607 1053 q 667 1046 655 1053 q 696 1000 694 1030 l 637 534 l 808 534 q 838 528 824 534 q 871 477 871 513 q 866 456 871 467 q 813 422 852 428 l 624 422 q 575 56 582 95 z "},"I":{"ha":386,"x_min":50,"x_max":281,"o":"m 159 54 q 105 -1 149 -1 q 76 7 89 -1 q 50 64 50 25 q 173 998 50 64 q 178 1018 174 1008 q 227 1051 192 1051 q 253 1044 241 1051 q 281 998 280 1029 q 159 54 165 87 z "},"J":{"ha":810,"x_min":-41,"x_max":743,"o":"m 689 1023 q 715 1015 703 1023 q 743 970 741 1000 q 722 750 733 906 q 711 616 715 661 q 627 229 688 362 q 272 0 522 1 q 126 39 210 0 q -35 180 9 93 q -41 203 -40 189 q -35 230 -41 217 q 14 260 -19 260 q 54 238 37 260 q 288 105 156 106 q 380 122 338 105 q 578 446 525 179 q 617 787 601 557 q 627 911 623 873 l 252 911 q 235 915 243 912 q 193 966 193 930 q 201 994 193 981 q 257 1023 218 1023 q 442 1024 273 1024 q 689 1023 601 1024 z "},"K":{"ha":825,"x_min":64,"x_max":716,"o":"m 174 56 q 119 0 165 1 q 90 9 103 0 q 64 66 64 26 l 186 1000 q 193 1021 188 1010 q 241 1053 208 1053 q 266 1046 254 1053 q 295 1000 293 1031 l 250 635 q 602 1024 585 1010 q 648 1048 625 1048 q 675 1040 663 1048 q 701 995 701 1024 q 686 952 701 975 q 267 488 668 928 q 366 398 311 448 q 690 102 651 141 q 716 54 715 76 q 707 25 716 39 q 663 0 690 0 q 619 15 640 0 q 218 380 596 31 q 174 56 186 127 z "},"L":{"ha":694,"x_min":36,"x_max":606,"o":"m 547 0 q 92 0 547 0 q 62 9 76 0 q 37 66 43 23 q 37 66 37 66 q 160 1000 37 94 q 165 1019 161 1010 q 214 1053 180 1053 q 239 1046 228 1053 q 268 998 268 1031 q 237 743 262 937 q 155 112 159 145 l 543 112 q 572 106 558 112 q 606 56 606 92 q 604 38 606 47 q 547 0 592 7 z "},"M":{"ha":1003,"x_min":45,"x_max":907,"o":"m 786 56 q 785 53 786 55 q 731 0 778 0 q 703 8 715 0 q 675 66 675 26 q 739 623 675 77 q 486 86 578 283 q 463 39 466 44 q 409 0 443 1 q 396 1 402 0 q 353 48 368 7 l 235 624 q 155 56 196 313 q 155 53 155 55 q 100 0 147 0 q 72 8 84 0 q 45 66 45 26 q 141 798 45 73 q 168 1000 166 985 q 176 1022 170 1012 q 226 1049 193 1049 q 241 1047 233 1049 q 275 1017 271 1039 q 362 574 288 941 q 430 232 415 309 l 797 1010 q 804 1024 800 1017 q 853 1049 824 1049 q 878 1042 866 1049 q 907 996 905 1027 q 902 951 905 977 q 786 56 802 155 z "},"N":{"ha":907,"x_min":28,"x_max":815,"o":"m 694 53 q 639 0 686 1 q 580 40 604 1 l 236 824 q 221 699 230 768 q 140 56 153 135 q 84 0 130 1 q 55 9 68 0 q 28 66 28 26 q 152 1000 151 997 q 159 1021 154 1011 q 210 1049 176 1049 q 267 1023 254 1049 l 608 256 l 708 997 q 714 1021 709 1009 q 761 1050 728 1050 q 789 1043 775 1050 q 815 996 815 1027 q 809 947 812 973 q 694 53 709 143 z "},"O":{"ha":868,"x_min":22,"x_max":907,"o":"m 22 430 q 54 653 22 541 q 206 941 104 827 q 429 1059 312 1059 q 616 959 539 1059 q 708 677 697 852 q 774 705 730 685 q 857 732 829 732 q 882 725 870 732 q 907 682 907 710 q 883 632 906 656 q 706 559 833 583 q 680 412 700 484 q 528 117 633 232 q 301 0 422 0 q 271 2 286 0 q 98 126 167 17 q 22 430 22 248 m 138 448 q 173 233 138 325 q 313 111 220 111 q 361 122 336 111 q 500 272 435 156 q 592 549 574 401 q 408 605 491 550 q 252 822 298 678 q 138 448 140 656 m 450 932 q 418 924 433 932 q 381 842 381 903 q 383 819 381 831 q 477 696 395 745 q 595 657 539 659 q 579 765 591 715 q 450 932 542 926 z "},"P":{"ha":657,"x_min":38,"x_max":634,"o":"m 634 851 q 510 577 633 690 q 198 430 393 471 l 149 56 q 147 47 148 52 q 94 0 137 0 q 65 8 77 0 q 38 66 38 26 q 161 1000 38 71 q 168 1022 163 1011 q 221 1054 185 1054 q 355 1065 283 1065 q 487 1047 429 1065 q 634 851 634 1000 m 532 845 q 532 852 532 848 q 357 964 526 964 q 264 957 311 964 q 213 552 260 918 q 392 618 308 566 q 532 845 532 704 z "},"Q":{"ha":829,"x_min":30,"x_max":761,"o":"m 707 14 q 727 10 718 14 q 761 -43 761 -2 q 696 -123 760 -90 q 595 -149 644 -149 q 488 -114 537 -149 q 400 18 422 -67 q 309 1 357 1 q 281 3 295 1 q 106 127 175 17 q 30 431 30 248 q 62 654 30 541 q 214 943 111 828 q 437 1061 319 1061 q 465 1059 450 1061 q 641 935 572 1045 q 717 633 717 815 q 673 364 717 496 q 509 90 616 191 q 514 52 511 68 q 591 -33 530 -33 q 652 -9 614 -32 q 707 14 686 14 m 143 460 q 166 277 144 353 q 188 292 176 285 q 307 326 243 326 q 353 321 330 326 q 478 226 437 302 q 536 330 510 272 q 604 624 604 480 q 558 851 604 760 q 427 947 509 947 q 347 917 389 947 q 212 738 271 861 q 143 460 143 595 m 321 112 q 387 134 352 112 q 309 206 374 205 q 298 205 304 206 q 217 168 257 199 q 321 112 260 113 z "},"R":{"ha":795,"x_min":59,"x_max":709,"o":"m 170 56 q 114 0 160 1 q 86 8 98 0 q 59 66 59 26 q 182 1000 90 321 q 196 1025 184 1013 q 252 1046 219 1046 q 385 1057 313 1057 q 480 1050 437 1057 q 671 840 671 1015 q 648 711 671 771 q 311 444 580 528 l 686 102 q 709 53 708 78 q 701 26 709 39 q 657 0 685 0 q 613 15 635 0 q 212 380 597 26 q 170 56 178 111 m 285 947 q 233 541 285 947 q 414 604 329 555 q 563 837 563 690 q 385 956 562 954 q 285 947 372 956 z "},"S":{"ha":703,"x_min":-12,"x_max":624,"o":"m -9 188 q -12 212 -12 198 q -7 235 -12 224 q 33 262 5 262 q 82 232 58 261 q 96 214 90 222 q 278 98 191 98 q 425 159 363 98 q 484 304 484 220 q 446 428 484 377 q 340 513 416 469 q 245 571 260 560 q 185 621 210 595 q 123 782 123 686 q 125 808 123 794 q 210 981 134 911 q 391 1053 287 1053 q 479 1038 436 1053 q 616 932 568 1008 q 624 903 624 912 q 617 878 624 890 q 574 853 602 853 q 540 866 550 853 q 391 950 471 949 q 281 905 329 950 q 227 781 227 854 q 255 699 227 735 q 353 623 280 667 q 473 543 433 575 q 599 304 599 441 q 593 243 599 274 q 481 64 570 136 q 278 -9 390 -9 q 138 28 205 -9 q -9 188 44 82 z "},"T":{"ha":802,"x_min":33,"x_max":866,"o":"m 866 995 q 858 968 866 981 q 807 943 841 943 l 497 943 q 382 56 389 87 q 381 47 382 52 q 326 0 370 0 q 298 9 310 0 q 272 66 272 26 q 354 684 272 74 q 389 943 382 890 l 99 943 q 69 948 83 943 q 33 993 33 960 q 41 1023 33 1009 q 92 1050 58 1050 l 808 1050 q 829 1046 818 1050 q 866 995 866 1032 z "},"U":{"ha":887,"x_min":71,"x_max":807,"o":"m 687 56 q 687 54 687 55 q 631 0 679 0 q 604 8 616 0 q 576 66 576 26 q 582 125 576 74 q 513 52 555 83 q 351 0 439 0 q 320 2 336 0 q 147 126 216 17 q 71 430 71 248 q 136 969 71 606 q 140 994 140 989 q 146 1013 142 1003 q 193 1047 161 1047 q 218 1040 206 1047 q 248 994 245 1025 q 241 956 245 978 q 186 469 186 612 q 227 222 186 317 q 362 111 274 111 q 379 112 370 111 q 516 221 446 125 q 629 474 596 330 l 699 994 q 705 1018 699 1006 q 753 1047 720 1047 q 777 1040 766 1047 q 807 994 804 1025 q 789 851 799 932 q 687 56 689 65 z "},"V":{"ha":969,"x_min":-38,"x_max":1158,"o":"m 273 1049 q 300 1042 287 1049 q 328 996 326 1025 q 284 650 300 777 q 245 295 245 337 q 333 123 245 124 q 623 277 496 124 q 789 610 730 407 q 591 675 665 615 q 504 868 504 745 q 572 1012 505 953 q 703 1062 631 1062 q 861 1001 798 1062 q 932 815 932 931 q 927 730 932 789 q 957 739 942 733 q 1048 785 994 751 q 1112 809 1086 809 q 1133 803 1122 809 q 1158 759 1158 789 q 1090 677 1157 717 q 902 616 1012 631 q 901 615 902 616 q 713 218 839 379 q 311 -2 544 -2 q 252 8 279 -2 q 135 282 135 53 q 165 604 135 406 q 203 881 197 806 q 96 814 136 838 q 18 774 30 774 q -12 783 2 774 q -38 829 -38 800 q -5 880 -37 859 q 0 883 -3 881 q 273 1049 235 1040 m 614 851 q 629 791 614 818 q 814 717 671 717 q 825 819 825 774 q 816 876 825 849 q 722 947 791 947 q 660 931 688 947 q 614 851 614 903 z "},"W":{"ha":1316,"x_min":-20,"x_max":1499,"o":"m 955 859 q 970 799 955 825 q 1155 725 1013 725 q 1166 827 1166 783 q 1157 884 1166 857 q 1063 956 1133 956 q 1001 939 1029 956 q 955 859 955 911 m 292 1055 q 317 1048 305 1055 q 346 1002 345 1032 q 302 652 317 779 q 263 301 263 342 q 351 129 263 130 q 496 161 425 129 q 471 355 471 262 q 481 505 471 439 q 670 728 517 728 q 776 691 732 728 q 833 550 833 641 q 831 502 833 526 q 722 212 817 348 q 642 125 676 146 q 680 107 648 107 q 954 268 827 108 q 1130 618 1061 404 q 932 683 1006 623 q 845 876 845 753 q 913 1020 846 961 q 1044 1070 972 1070 q 1202 1009 1139 1070 q 1273 823 1273 939 q 1268 738 1273 797 q 1298 747 1283 741 q 1389 793 1335 759 q 1453 817 1428 817 q 1473 812 1463 817 q 1499 766 1499 797 q 1432 686 1498 725 q 1243 625 1353 640 q 1063 231 1181 392 q 659 -1 894 -1 q 646 -1 653 -1 q 538 54 583 4 q 330 3 441 3 q 227 40 269 3 q 149 291 149 109 q 182 613 149 414 q 221 886 214 807 q 115 820 154 844 q 36 779 48 779 q 7 787 21 779 q -20 835 -20 804 q 13 886 -19 863 q 28 897 16 888 q 292 1055 258 1055 m 591 232 q 637 281 613 249 q 716 532 716 389 q 715 544 716 538 q 664 600 712 600 q 604 533 628 599 q 578 346 578 456 q 591 232 578 304 z "},"X":{"ha":810,"x_min":-7,"x_max":789,"o":"m 434 489 q 517 260 488 340 q 587 53 587 64 q 578 25 587 38 q 533 0 562 0 q 484 37 500 1 q 473 59 477 51 q 353 379 437 144 l 96 28 q 47 0 75 1 q 19 7 33 0 q -7 53 -7 23 q -6 64 -7 60 q 21 109 -4 77 q 307 507 151 276 q 276 593 291 553 q 135 996 135 983 q 142 1024 135 1011 q 186 1051 157 1051 q 237 1023 221 1050 l 388 616 l 688 1025 q 737 1050 708 1050 q 762 1044 751 1050 q 789 996 789 1029 q 783 970 789 984 l 434 489 z "},"Y":{"ha":868,"x_min":-34,"x_max":802,"o":"m 748 1048 q 773 1042 761 1048 q 802 995 800 1027 q 679 40 690 111 q 581 -209 653 -111 q 279 -357 472 -357 q 133 -319 216 -357 q -28 -178 16 -264 q -34 -151 -34 -165 q -26 -124 -34 -137 q 20 -97 -10 -97 q 62 -119 45 -98 q 295 -252 163 -252 q 476 -161 400 -252 q 576 125 562 -56 q 509 54 550 84 q 346 1 435 1 q 315 3 331 1 q 142 127 211 18 q 66 431 66 249 q 74 602 66 514 q 136 995 87 741 q 140 1010 137 1003 q 189 1048 155 1048 q 216 1040 203 1048 q 243 997 243 1025 q 218 789 243 955 q 182 471 182 545 q 222 223 182 319 q 357 112 269 112 q 376 114 366 112 q 512 223 442 127 q 625 475 592 333 l 694 995 q 701 1018 695 1007 q 748 1048 715 1048 z "},"Z":{"ha":791,"x_min":-7,"x_max":697,"o":"m 20 7 q -7 54 -7 21 q 1 90 -7 70 l 543 939 q 208 941 215 939 q 186 947 197 943 q 147 996 147 963 q 155 1025 147 1013 q 210 1053 173 1053 l 644 1053 q 669 1046 657 1053 q 697 1000 697 1032 q 692 977 697 987 l 147 112 l 606 112 q 635 106 621 112 q 669 56 669 92 q 667 38 669 47 q 610 0 655 7 l 47 0 q 20 7 33 0 z "},"[":{"ha":960,"x_min":259,"x_max":751,"o":"m 705 943 q 471 943 705 943 l 357 -7 l 580 -7 q 602 -12 591 -7 q 626 -53 626 -25 q 621 -75 626 -64 q 580 -99 607 -99 l 305 -99 q 282 -93 294 -99 q 259 -58 259 -80 q 385 995 259 -54 q 389 1009 387 1002 q 436 1036 402 1036 l 705 1036 q 727 1030 717 1036 q 751 989 751 1017 q 746 968 751 979 q 705 943 733 943 z "},"\\":{"ha":715,"x_min":113,"x_max":594,"o":"m 585 45 q 594 13 594 26 q 586 -12 594 0 q 545 -33 570 -33 q 498 0 517 -33 q 458 99 496 6 q 121 942 160 836 q 113 972 113 963 q 119 996 113 984 q 162 1020 134 1020 q 207 989 190 1019 q 563 102 227 951 q 585 45 585 46 z "},"]":{"ha":960,"x_min":252,"x_max":745,"o":"m 298 -7 q 533 -7 298 -7 l 647 943 l 425 943 q 403 949 413 943 q 378 989 378 962 q 384 1011 378 1000 q 425 1036 397 1036 l 699 1036 q 722 1029 710 1036 q 745 994 745 1017 q 619 -58 745 991 q 615 -73 618 -66 q 568 -99 602 -99 l 298 -99 q 277 -94 288 -99 q 252 -53 252 -80 q 258 -31 252 -41 q 298 -7 271 -7 z "},"^":{"ha":960,"x_min":197,"x_max":770,"o":"m 485 1047 q 538 1018 518 1046 l 762 667 q 770 635 770 653 q 761 603 770 618 q 708 573 743 573 q 653 608 674 576 l 485 873 q 313 606 353 673 q 310 602 311 604 q 258 573 292 573 q 227 582 241 573 q 197 635 197 600 q 209 673 197 656 l 433 1018 q 433 1019 433 1019 q 485 1047 450 1047 z "},"_":{"ha":772,"x_min":148,"x_max":609,"o":"m 205 99 q 554 99 205 99 q 580 94 568 99 q 609 47 609 82 q 607 35 609 41 q 553 0 595 0 l 205 0 q 186 2 195 0 q 148 53 148 11 q 155 76 148 65 q 205 99 170 99 z "},"`":{"ha":738,"x_min":290,"x_max":481,"o":"m 461 739 q 481 696 480 720 q 472 671 481 684 q 431 649 456 649 q 391 669 412 649 l 308 749 q 290 789 290 766 q 296 815 290 803 q 338 840 311 840 q 389 809 358 840 q 461 739 454 745 z "},"a":{"ha":573,"x_min":23,"x_max":635,"o":"m 23 213 q 26 262 23 236 q 99 469 40 378 q 272 578 171 578 q 348 562 315 578 q 385 578 361 578 q 402 576 399 578 q 431 519 431 567 q 425 434 431 499 q 404 195 404 241 q 416 136 404 163 q 467 96 435 96 q 479 97 473 96 q 538 128 500 101 q 597 155 575 155 q 616 149 606 155 q 635 113 635 136 q 582 40 633 78 q 451 -3 520 -3 q 325 83 366 -3 q 303 60 315 71 q 167 -3 236 -3 q 92 19 123 -3 q 23 213 23 69 m 321 436 q 326 482 321 436 q 295 490 311 490 q 270 486 283 490 q 163 370 207 469 q 125 191 125 281 q 125 184 125 188 q 167 102 127 102 q 218 125 188 102 q 264 167 250 147 q 288 242 273 180 q 321 436 315 358 z "},"b":{"ha":644,"x_min":30,"x_max":769,"o":"m 285 1038 q 299 1037 292 1038 q 416 901 416 1029 q 298 593 416 762 q 135 412 221 482 q 149 331 140 368 q 321 100 197 100 q 413 128 370 100 q 538 304 492 179 q 477 324 505 309 q 406 452 406 363 q 438 530 406 496 q 524 567 475 567 q 608 540 573 567 q 656 437 656 503 q 655 409 655 410 q 684 425 667 414 q 728 441 710 441 q 747 436 737 441 q 769 397 769 424 q 758 368 769 382 q 636 310 726 329 q 540 117 606 199 q 330 0 447 0 q 83 210 161 1 q 30 555 30 355 q 31 584 30 566 q 85 846 41 726 q 285 1038 156 1038 m 140 641 q 130 535 132 586 q 216 638 173 578 q 324 892 324 788 q 321 905 324 898 q 286 935 311 935 q 194 862 231 935 q 140 641 160 794 m 534 473 q 519 470 527 473 q 498 440 498 462 q 563 395 498 401 q 564 410 563 400 q 565 430 565 424 q 564 437 565 433 q 534 473 561 473 z "},"c":{"ha":432,"x_min":17,"x_max":452,"o":"m 17 219 q 20 268 17 242 q 93 474 34 384 q 267 585 165 585 q 296 583 280 585 q 370 530 368 572 q 313 496 370 498 l 290 496 q 264 492 277 496 q 159 379 202 474 q 119 203 119 292 q 134 134 119 157 q 208 104 153 109 q 255 109 231 104 q 357 157 298 119 q 412 182 396 182 q 431 176 421 182 q 452 138 452 163 q 448 122 452 131 q 349 43 431 82 q 186 2 261 2 q 17 219 18 3 z "},"d":{"ha":527,"x_min":33,"x_max":644,"o":"m 33 216 q 36 264 33 239 q 109 471 50 380 q 282 581 181 581 q 351 568 317 581 l 406 959 q 463 1039 416 1038 q 477 1038 470 1039 q 509 979 509 1030 q 479 740 509 958 q 414 195 414 244 q 427 136 414 163 q 477 96 446 96 q 490 97 484 96 q 549 128 511 101 q 610 155 587 155 q 627 149 619 155 q 644 114 644 135 q 591 40 641 79 q 461 -3 530 -3 q 333 82 376 -3 q 310 58 323 70 q 178 -1 245 -1 q 104 20 135 -1 q 33 216 33 69 m 275 170 q 296 237 283 182 q 338 483 323 354 q 305 492 322 490 q 280 489 293 492 q 174 372 217 471 q 135 194 135 283 q 136 179 135 186 q 178 104 139 104 q 227 125 197 104 q 275 170 259 149 z "},"e":{"ha":445,"x_min":44,"x_max":478,"o":"m 44 208 q 47 256 44 231 q 120 463 61 372 q 293 573 192 573 q 345 566 320 573 q 435 440 435 541 q 434 425 435 433 q 353 272 427 334 q 182 211 279 211 q 146 214 164 211 q 145 186 145 204 q 159 125 145 146 q 234 92 177 97 q 283 98 259 92 q 385 146 326 108 q 438 171 422 171 q 456 165 447 171 q 478 128 478 153 q 475 111 478 120 q 365 27 456 66 q 216 -9 280 -9 q 170 -5 191 -9 q 44 208 44 20 m 262 467 q 165 309 200 425 q 197 305 182 305 q 296 340 254 305 q 342 430 342 378 q 309 483 342 482 q 262 467 286 482 z "},"f":{"ha":486,"x_min":-155,"x_max":593,"o":"m 82 340 q 89 340 83 340 q 163 339 130 339 l 205 625 q 455 1038 267 1037 q 520 1026 492 1038 q 593 899 593 996 q 585 824 593 863 q 423 529 553 682 q 270 386 341 432 l 263 339 l 333 339 q 363 332 350 339 q 389 290 389 319 q 382 266 389 277 q 332 241 367 241 l 249 241 l 217 17 q 407 163 395 152 q 459 184 434 184 q 477 178 468 184 q 497 144 497 165 q 460 81 496 113 q 197 -125 388 21 l 165 -351 q 114 -458 155 -418 q 2 -500 68 -500 q -107 -454 -60 -500 q -155 -348 -155 -407 q -128 -254 -155 -291 q -67 -197 -113 -232 q -62 -194 -66 -197 q 102 -71 -18 -161 l 149 241 l 82 241 q 71 241 76 241 q 26 290 26 247 q 29 309 26 300 q 82 340 41 340 m 456 935 q 358 840 399 933 q 296 568 323 757 q 290 524 292 535 q 385 635 336 568 q 494 892 494 787 q 492 905 494 898 q 456 935 481 935 m 68 -296 q 79 -214 68 -296 q 5 -271 9 -267 q -45 -340 -44 -307 q -41 -362 -45 -352 q 2 -392 -29 -392 q 25 -388 14 -392 q 68 -296 58 -374 z "},"g":{"ha":524,"x_min":-13,"x_max":639,"o":"m 24 210 q 27 258 24 233 q 100 465 41 375 q 273 575 172 575 q 351 558 317 575 q 387 575 364 574 q 433 517 432 574 q 359 -20 433 515 q 549 125 509 92 q 601 148 574 147 q 619 142 610 148 q 639 107 639 128 q 602 44 638 75 q 338 -163 534 -13 l 307 -387 q 241 -505 295 -465 q 144 -537 197 -537 q 33 -490 81 -536 q -13 -385 -13 -443 q 13 -291 -13 -328 q 76 -233 29 -267 l 77 -232 q 81 -229 78 -231 q 243 -107 128 -194 l 263 24 q 168 -7 218 -6 q 93 16 125 -7 q 24 210 24 66 m 265 163 q 288 236 275 177 q 328 477 316 356 q 296 486 313 486 q 271 483 284 486 q 164 366 208 465 q 125 188 125 277 q 126 169 125 178 q 168 98 131 98 q 214 117 187 98 q 265 163 246 139 m 210 -333 q 221 -250 210 -333 q 215 -255 218 -252 q 146 -308 148 -307 q 97 -377 98 -345 q 101 -399 97 -389 q 144 -429 113 -429 q 167 -425 157 -429 q 210 -333 200 -410 z "},"h":{"ha":560,"x_min":30,"x_max":671,"o":"m 30 73 l 145 957 q 201 1036 155 1036 q 222 1034 212 1036 q 248 977 248 1024 q 191 481 248 918 q 334 570 241 569 q 396 549 368 570 q 437 469 437 519 q 437 431 437 462 q 436 321 436 361 q 444 158 436 180 q 447 148 445 153 q 501 94 467 94 q 515 96 508 94 q 573 127 535 100 q 633 155 610 155 q 649 150 641 155 q 671 109 671 137 q 670 104 671 107 q 614 36 665 71 q 489 -6 551 -6 q 443 0 465 -6 q 330 233 330 33 q 332 286 330 250 q 334 353 334 329 q 316 454 334 453 q 309 453 313 454 q 210 301 270 438 q 143 96 158 179 q 140 75 140 82 q 127 31 138 50 q 79 -2 108 -2 q 62 1 71 -2 q 30 64 30 15 l 30 73 z "},"i":{"ha":263,"x_min":28,"x_max":366,"o":"m 161 526 q 155 441 161 506 q 134 201 134 248 q 146 143 134 170 q 197 102 165 102 q 212 104 204 102 q 269 136 231 109 q 328 163 305 163 q 347 156 337 163 q 366 120 366 142 q 312 47 363 85 q 181 3 250 3 q 85 43 123 3 q 28 237 28 104 q 47 415 28 283 q 58 506 55 477 q 60 518 59 512 q 115 586 71 586 q 130 585 123 586 q 161 526 161 577 m 84 703 q 90 726 84 715 q 134 753 103 753 q 157 747 146 753 q 183 703 183 734 q 178 680 183 691 q 134 654 164 654 q 111 659 121 654 q 84 703 84 673 z "},"j":{"ha":374,"x_min":-203,"x_max":448,"o":"m 198 575 q 243 517 242 574 l 168 -21 q 359 125 338 109 q 410 148 384 147 q 429 142 420 148 q 448 107 448 128 q 412 44 448 75 q 148 -163 312 -40 l 117 -387 q 111 -418 115 -403 q -46 -537 79 -537 q -156 -490 -109 -537 q -203 -385 -203 -444 q -174 -285 -203 -324 q -110 -229 -157 -264 l 53 -107 q 141 491 139 462 q 142 498 141 495 q 198 575 149 575 m 20 -333 q 31 -250 20 -333 l -44 -308 q -94 -377 -93 -345 q -90 -399 -94 -389 q -46 -429 -78 -429 q -23 -425 -33 -429 q 20 -333 9 -410 m 167 705 q 173 728 167 717 q 217 754 187 754 q 241 748 229 754 q 267 705 267 734 q 260 681 267 692 q 217 655 246 655 q 193 661 205 655 q 167 705 167 675 z "},"k":{"ha":467,"x_min":13,"x_max":512,"o":"m 13 60 q 129 962 13 60 q 136 1002 132 986 q 186 1042 149 1042 q 201 1041 193 1042 q 232 982 232 1034 q 180 520 232 926 q 318 575 245 574 q 396 545 361 575 q 443 433 443 503 q 365 260 442 340 q 220 153 318 212 q 304 106 255 106 q 401 135 338 106 q 474 160 455 160 q 490 155 482 160 q 512 115 512 142 q 511 106 512 111 q 441 39 501 73 q 319 0 373 0 q 125 94 193 1 q 123 70 125 81 q 62 3 110 3 q 44 8 54 3 q 13 60 13 22 m 338 428 q 334 444 338 437 q 304 459 323 459 q 283 456 294 459 q 189 374 233 441 q 142 229 142 301 q 338 428 337 321 z "},"l":{"ha":371,"x_min":28,"x_max":511,"o":"m 328 0 q 86 199 165 7 q 28 555 28 345 q 29 583 28 566 q 82 845 39 726 q 281 1038 153 1038 q 296 1037 288 1038 q 413 901 413 1029 q 292 589 413 760 q 132 412 216 479 q 182 218 155 283 q 336 99 234 99 q 350 100 342 99 q 412 133 372 104 q 473 159 451 159 q 491 153 482 159 q 511 117 511 140 q 460 44 509 81 q 328 0 399 0 m 282 935 q 212 901 242 935 q 127 535 134 813 q 208 633 168 576 q 321 892 321 787 q 318 905 321 898 q 282 935 307 935 z "},"m":{"ha":802,"x_min":23,"x_max":916,"o":"m 135 82 q 121 38 132 58 q 71 5 101 5 q 57 7 64 5 q 23 79 23 22 l 81 507 q 85 530 82 519 q 137 587 96 587 q 154 585 146 587 q 183 527 183 576 q 181 482 183 507 q 183 486 182 484 q 328 576 234 576 q 385 562 355 576 q 444 498 431 538 q 578 572 492 571 q 640 551 612 572 q 682 471 682 522 q 681 372 682 439 q 680 258 680 298 q 681 205 680 228 q 746 99 689 99 q 760 100 753 99 q 818 132 780 105 q 878 159 855 159 q 895 154 886 159 q 916 114 916 141 q 915 109 916 112 q 859 41 910 76 q 733 -1 795 -1 q 647 26 682 -1 q 574 282 574 85 q 575 319 574 294 q 576 384 576 357 q 560 456 576 455 q 528 435 547 456 q 427 233 481 380 l 415 117 q 404 48 411 72 q 349 2 389 2 q 329 7 338 2 q 300 63 300 20 q 319 212 300 104 q 345 413 345 359 q 342 438 345 427 q 313 461 336 461 q 286 447 301 460 q 175 226 236 399 q 135 82 135 113 z "},"n":{"ha":541,"x_min":20,"x_max":661,"o":"m 20 71 q 77 506 20 71 q 81 528 79 517 q 134 586 93 586 q 149 585 141 586 q 180 526 180 577 q 178 500 180 518 q 178 481 178 488 q 181 486 179 484 q 324 575 231 575 q 385 555 357 575 q 427 475 427 525 q 426 436 427 467 q 425 326 425 367 q 433 163 425 188 q 437 152 435 158 q 491 100 456 100 q 505 102 497 100 q 563 134 525 106 q 623 160 600 160 q 640 155 631 160 q 661 115 661 143 q 604 42 656 82 q 478 0 541 0 q 392 28 427 0 q 319 283 319 86 q 320 330 319 298 q 321 385 321 363 q 305 460 321 458 q 298 458 302 460 q 199 304 260 444 q 132 100 146 182 l 130 81 q 117 36 128 56 q 68 3 97 3 q 52 7 60 3 q 20 71 20 22 z "},"o":{"ha":425,"x_min":13,"x_max":527,"o":"m 209 570 q 254 565 233 569 q 382 402 358 543 q 425 430 395 410 q 486 458 465 458 q 506 452 496 458 q 527 415 527 438 q 497 364 526 392 q 390 300 456 326 q 358 121 389 194 q 191 1 307 1 q 109 28 150 1 q 13 255 13 91 q 46 435 13 354 q 209 570 98 564 m 294 282 q 243 288 267 283 q 128 382 154 307 q 111 258 111 326 q 117 195 111 226 q 199 102 136 102 q 237 115 220 102 q 294 282 287 153 m 283 374 q 293 374 283 374 q 244 468 283 467 q 237 467 241 468 q 222 445 222 462 q 227 416 222 430 q 283 374 242 374 z "},"p":{"ha":567,"x_min":-16,"x_max":685,"o":"m 102 505 q 102 513 102 509 q 158 585 112 585 q 173 583 165 585 q 204 524 204 576 q 201 477 204 511 q 348 574 252 574 q 410 554 381 574 q 451 474 451 524 q 450 435 451 466 q 450 325 450 366 q 458 163 450 187 q 462 150 460 157 q 515 99 481 99 q 530 100 522 99 q 587 132 549 105 q 647 159 625 159 q 664 154 656 159 q 685 114 685 141 q 684 109 685 112 q 628 41 680 76 q 503 -1 565 -1 q 416 26 452 -1 q 344 282 344 85 q 345 319 344 294 q 346 384 346 357 q 330 459 345 456 q 323 458 327 459 q 224 305 284 445 q 158 100 173 184 l 152 64 q 144 16 148 41 q 96 -378 109 -220 q 83 -422 94 -403 q 33 -456 63 -456 q 6 -446 18 -456 q -16 -393 -16 -428 q 102 505 -16 -384 z "},"q":{"ha":520,"x_min":40,"x_max":654,"o":"m 40 204 q 43 253 40 227 q 116 459 57 369 q 290 570 189 570 q 363 555 326 570 q 404 576 377 576 q 420 574 412 576 q 450 517 450 566 q 424 291 450 498 q 378 -87 393 45 l 397 -102 q 427 -62 409 -88 q 560 117 504 47 q 609 149 586 148 q 623 146 616 149 q 654 107 654 138 q 629 47 654 78 l 458 -165 q 524 -377 524 -265 q 513 -452 524 -419 q 402 -537 486 -537 q 267 -325 289 -536 q 231 -329 250 -329 q 146 -295 186 -329 q 96 -188 96 -252 q 113 -117 96 -150 q 248 -44 153 -45 q 272 -45 263 -44 l 278 17 q 184 -13 229 -12 q 111 9 142 -13 q 40 204 40 58 m 330 368 q 344 473 330 368 q 313 481 334 479 q 288 477 300 481 q 180 361 224 460 q 142 182 142 272 q 142 168 142 175 q 184 92 146 92 q 234 113 204 92 q 281 158 265 136 q 284 163 283 160 q 330 368 305 207 m 397 -237 q 363 -271 380 -256 q 363 -296 363 -283 q 405 -431 367 -431 q 410 -431 408 -431 q 438 -367 438 -425 q 397 -237 438 -298 m 262 -233 q 262 -223 262 -231 q 264 -143 263 -193 q 252 -142 260 -142 q 231 -145 241 -142 q 201 -189 201 -157 q 203 -201 201 -195 q 249 -237 212 -237 q 262 -233 254 -237 z "},"r":{"ha":553,"x_min":82,"x_max":659,"o":"m 431 165 q 432 163 431 164 q 490 100 454 100 q 557 130 511 102 q 621 158 600 158 q 641 151 631 158 q 659 120 659 138 q 605 43 656 83 q 476 -1 544 -1 q 399 22 431 -1 q 323 242 323 76 q 326 311 323 275 q 336 395 331 380 q 243 372 292 372 q 227 374 238 372 q 219 374 222 374 q 203 366 217 373 q 130 339 158 339 q 113 343 122 339 q 92 374 92 354 q 93 381 92 378 q 114 410 95 395 q 125 418 121 415 q 82 524 83 457 q 96 578 82 553 q 191 631 126 631 q 254 613 224 631 q 303 529 303 583 q 294 471 303 497 q 329 494 304 476 q 401 529 380 529 q 448 512 429 528 q 459 492 458 503 q 457 480 459 488 q 455 471 455 474 q 420 267 420 352 q 429 182 420 229 q 431 165 431 170 m 218 520 q 216 530 218 525 q 191 547 210 547 q 182 546 187 547 q 163 520 163 540 q 197 471 164 488 q 218 520 217 492 z "},"s":{"ha":467,"x_min":47,"x_max":452,"o":"m 56 390 q 59 396 57 391 q 121 537 121 536 q 121 538 121 538 q 173 573 135 573 q 201 570 186 572 q 386 454 315 553 q 452 245 452 363 q 427 116 452 184 q 331 16 392 16 q 309 24 320 16 q 287 66 287 40 q 291 84 287 75 q 298 98 291 84 q 348 256 347 177 q 347 274 348 264 q 279 423 340 361 q 208 465 239 464 q 158 368 196 443 q 157 366 158 368 q 156 364 157 365 q 94 308 127 308 q 75 312 85 308 q 47 353 47 324 q 54 383 47 363 q 56 390 56 388 z "},"t":{"ha":283,"x_min":-7,"x_max":391,"o":"m 48 751 q 55 751 49 751 q 123 749 93 749 l 153 959 q 160 994 156 980 q 210 1039 172 1039 q 224 1038 217 1039 q 256 979 256 1030 q 229 749 256 962 l 300 749 q 332 742 318 749 q 355 700 355 728 q 349 677 355 688 q 298 651 334 651 l 214 651 q 161 195 161 244 q 174 136 161 163 q 224 96 193 96 q 240 98 232 96 q 292 129 258 102 q 348 155 326 155 q 366 151 357 155 q 391 114 391 139 q 338 41 389 79 q 209 -3 277 -3 q 99 53 142 -3 q 56 201 56 112 q 109 651 56 221 l 48 651 q 40 651 44 651 q -7 700 -7 655 q -3 722 -7 712 q 48 751 9 751 z "},"u":{"ha":527,"x_min":28,"x_max":659,"o":"m 334 367 q 348 522 340 408 q 349 532 349 528 q 401 576 357 575 q 406 576 404 576 q 443 519 443 572 q 440 478 443 505 q 438 460 439 466 q 427 227 427 276 q 429 192 427 210 q 489 106 439 106 q 503 107 496 106 q 561 139 523 112 q 621 166 598 166 q 637 161 629 166 q 659 121 659 148 q 658 115 659 119 q 602 48 653 83 q 476 5 538 5 q 356 82 392 6 q 193 8 296 9 q 146 14 168 8 q 28 275 28 50 q 52 494 28 384 q 54 505 53 499 q 114 580 75 580 q 163 527 162 579 q 157 479 163 516 q 134 259 134 327 q 205 117 134 118 q 334 367 298 117 z "},"v":{"ha":527,"x_min":50,"x_max":651,"o":"m 136 574 q 186 521 184 574 q 178 467 186 510 q 152 242 152 311 q 226 106 152 107 q 319 149 273 106 q 420 304 380 205 q 366 321 391 309 q 288 452 288 359 q 321 530 288 496 q 407 567 357 567 q 491 541 455 567 q 538 444 538 505 q 537 409 538 439 q 566 425 549 414 q 610 441 592 441 q 628 436 619 441 q 651 397 651 423 q 640 367 651 382 q 519 310 608 329 q 438 138 491 214 q 212 0 342 0 q 106 51 147 1 q 50 270 50 123 q 74 488 50 380 q 75 491 74 489 q 136 574 94 573 m 416 473 q 402 470 410 473 q 380 440 380 462 q 445 395 381 401 q 448 428 448 411 q 448 437 448 432 q 416 473 444 473 z "},"w":{"ha":763,"x_min":1,"x_max":878,"o":"m 438 -3 q 310 48 361 -3 q 166 -3 253 -3 q 120 3 142 -3 q 1 264 1 39 q 25 482 1 372 q 92 568 45 568 q 137 515 136 568 q 131 468 137 505 q 107 244 107 313 q 182 102 107 104 q 270 165 238 106 l 269 186 q 276 270 269 222 q 357 410 298 410 q 408 318 408 410 q 378 150 408 227 q 443 102 391 103 q 535 137 490 102 q 646 301 602 190 q 591 318 616 306 q 514 448 514 357 q 547 526 514 493 q 633 564 583 564 q 712 539 677 564 q 764 440 762 503 l 763 406 q 792 422 774 411 q 836 438 819 438 q 854 433 845 438 q 878 394 878 420 q 866 364 878 378 q 745 307 835 326 q 662 132 716 210 q 438 -3 566 -3 m 642 469 q 628 467 635 469 q 606 437 606 458 q 607 431 606 434 q 671 392 612 396 q 674 425 674 408 q 642 469 673 465 z "},"x":{"ha":542,"x_min":125,"x_max":576,"o":"m 234 574 q 280 537 263 574 l 354 371 l 486 550 q 529 574 504 574 q 550 568 540 573 q 576 524 576 553 q 570 503 576 513 q 528 444 566 495 q 399 270 460 353 l 494 71 q 498 47 498 61 q 496 33 498 40 q 452 -1 487 2 q 417 15 433 -1 q 366 104 400 33 q 330 176 344 150 l 230 41 q 222 31 226 35 q 173 -1 196 -1 q 155 3 165 -1 q 125 45 125 17 q 144 89 125 64 l 286 279 l 193 483 q 182 522 183 504 q 185 541 182 532 q 234 574 196 574 z "},"y":{"ha":547,"x_min":5,"x_max":657,"o":"m 115 581 q 160 528 159 581 q 155 484 160 518 q 132 265 132 333 q 206 117 132 119 q 237 128 222 119 q 332 389 300 169 q 344 515 340 446 q 345 524 345 522 q 346 532 345 528 q 397 578 354 578 q 413 575 405 578 q 444 517 444 564 q 443 502 444 511 q 443 494 443 496 l 374 -6 q 567 142 538 117 q 619 163 593 163 q 637 158 628 163 q 657 123 657 145 q 620 60 656 92 q 355 -148 551 2 l 325 -371 q 252 -492 313 -451 q 163 -521 208 -521 q 52 -474 100 -521 q 5 -369 5 -427 q 36 -269 5 -307 q 99 -214 52 -249 q 262 -91 105 -207 q 280 28 271 -30 q 189 9 241 9 q 143 16 165 9 q 24 277 24 52 q 48 494 25 389 q 115 581 67 576 m 229 -317 q 240 -234 229 -317 q 165 -292 170 -287 q 115 -361 116 -330 q 119 -383 115 -372 q 163 -413 131 -413 q 184 -409 175 -413 q 229 -317 218 -396 z "},"z":{"ha":567,"x_min":117,"x_max":570,"o":"m 136 90 q 429 483 136 90 l 209 483 q 172 486 186 483 q 132 532 132 494 q 133 541 132 536 q 198 576 142 576 l 517 576 q 534 574 526 576 q 565 527 565 565 q 558 503 565 517 q 469 378 552 492 q 260 91 357 224 l 521 91 q 570 46 568 90 q 566 26 570 35 q 491 0 553 0 l 165 0 q 144 5 155 0 q 117 47 117 18 q 117 52 117 50 q 136 90 118 62 z "},"{":{"ha":674,"x_min":151,"x_max":542,"o":"m 446 94 q 496 21 494 91 q 453 -81 492 -41 q 349 -122 411 -121 q 342 -122 345 -122 q 222 -64 266 -119 q 190 50 191 -23 q 194 99 190 73 q 233 227 201 137 q 266 374 266 318 q 265 387 266 380 q 198 435 258 432 q 178 440 188 435 q 151 483 151 454 q 156 503 151 493 q 203 526 170 526 q 277 587 276 526 q 256 741 277 644 q 234 890 234 841 q 280 1021 234 972 q 402 1067 323 1066 q 509 1013 469 1062 q 542 907 541 974 q 488 840 536 840 q 460 850 470 841 q 445 918 445 864 q 443 935 445 926 q 397 973 435 970 q 389 973 394 973 q 328 898 333 968 q 349 761 328 842 q 373 580 373 660 q 338 484 373 524 q 336 483 337 484 q 328 474 336 483 l 338 464 q 361 376 361 425 q 359 341 361 359 q 320 196 354 286 q 313 174 318 189 q 285 44 285 90 q 345 -28 286 -27 q 358 -27 351 -28 q 398 23 395 -20 q 401 49 399 39 q 446 94 408 94 z "},"|":{"ha":463,"x_min":178,"x_max":277,"o":"m 277 996 q 277 0 277 996 q 271 -29 277 -16 q 225 -56 258 -56 q 216 -54 221 -55 q 178 1 178 -44 l 178 996 q 180 1013 178 1004 q 231 1053 188 1053 q 254 1046 243 1053 q 277 996 277 1031 z "},"}":{"ha":662,"x_min":169,"x_max":560,"o":"m 264 851 q 215 924 216 852 q 258 1025 219 985 q 361 1067 300 1066 q 369 1067 365 1067 q 488 1009 445 1063 q 521 895 520 967 q 517 845 521 871 q 477 718 510 807 q 445 571 445 626 q 447 553 445 562 q 513 510 455 513 q 532 505 523 509 q 560 461 560 492 q 555 441 560 451 q 508 418 541 418 q 433 357 435 418 q 455 203 433 300 q 477 54 477 104 q 431 -77 477 -28 q 309 -122 387 -121 q 201 -69 249 -119 q 169 37 170 -30 q 222 105 175 104 q 251 94 241 104 q 266 26 266 80 q 268 9 266 18 q 313 -28 276 -26 q 325 -28 319 -28 q 382 46 378 -22 q 359 199 380 106 q 338 364 338 296 q 373 460 338 420 q 374 461 374 460 q 382 471 374 461 l 373 481 q 349 568 350 519 q 351 600 349 584 q 391 748 356 657 q 397 770 393 755 q 426 901 426 854 q 366 973 425 972 q 351 972 359 973 q 313 921 316 963 q 310 895 312 905 q 264 851 302 851 z "},"~":{"ha":709,"x_min":177,"x_max":546,"o":"m 503 380 q 523 375 513 380 q 546 337 546 363 q 526 279 546 315 q 429 222 493 222 q 410 224 420 222 q 332 270 372 230 q 328 274 330 272 q 292 294 307 294 q 261 258 271 292 q 256 242 260 250 q 220 220 243 220 q 200 225 210 220 q 177 263 177 237 q 196 322 177 289 q 198 326 197 323 q 292 380 231 380 q 320 376 306 380 q 388 332 347 367 q 429 306 416 306 q 435 307 432 306 q 460 341 450 310 q 465 356 462 349 q 503 380 478 380 z "},"":{"ha":540,"x_min":0,"x_max":0,"o":""},"":{"ha":425,"x_min":119,"x_max":349,"o":"m 349 978 q 340 945 349 960 q 288 916 321 916 q 255 925 270 916 q 225 978 225 943 q 235 1010 225 995 q 288 1039 253 1039 q 319 1030 304 1039 q 349 978 349 1012 m 310 733 q 222 79 310 733 q 217 53 220 64 q 165 0 205 0 q 149 2 157 0 q 119 60 119 10 q 151 352 119 111 q 198 731 196 707 q 212 776 200 755 q 261 808 232 808 q 276 805 269 808 q 310 733 310 791 z "},"":{"ha":501,"x_min":33,"x_max":446,"o":"m 33 452 q 66 616 33 532 q 190 777 111 733 l 213 943 q 220 967 214 956 q 269 996 235 996 q 296 988 283 996 q 323 941 323 972 q 304 795 317 893 q 368 748 367 781 q 313 715 366 718 l 292 715 q 271 712 281 715 q 167 602 209 697 q 129 431 129 517 q 130 408 129 419 q 210 344 139 344 q 250 347 230 344 q 354 393 295 356 q 408 417 393 417 q 425 412 416 417 q 446 376 446 398 q 442 361 446 367 q 387 305 428 332 q 234 250 320 262 q 221 152 229 211 q 215 109 216 115 q 214 100 214 105 q 159 53 203 53 q 131 61 144 53 q 104 119 104 79 q 121 260 104 130 q 33 452 34 300 z "},"":{"ha":752,"x_min":7,"x_max":640,"o":"m 607 267 q 640 165 640 221 q 613 77 640 116 q 490 17 570 17 q 471 19 480 17 q 306 117 427 28 q 253 33 292 64 q 156 0 210 0 q 52 43 97 0 q 7 143 7 87 q 35 252 7 210 q 144 307 71 307 q 231 287 189 307 l 269 530 l 201 530 q 180 533 189 530 q 146 580 146 544 q 152 601 146 591 q 201 624 167 624 l 278 624 l 279 647 q 260 768 279 696 q 241 881 241 836 q 274 979 241 935 q 393 1038 319 1038 q 486 1003 446 1038 q 536 892 536 960 q 536 879 536 886 q 487 823 530 823 q 448 847 458 824 q 441 896 441 861 q 439 911 441 903 q 393 945 431 945 q 335 873 336 945 q 352 764 335 835 q 375 624 374 673 l 439 624 q 461 620 450 624 q 492 574 492 608 q 490 562 492 569 q 439 529 480 529 l 362 529 l 322 224 q 419 157 384 180 q 492 121 473 121 q 514 127 503 121 q 540 166 540 140 q 528 198 540 179 q 511 237 511 222 q 518 263 511 251 q 564 290 533 290 q 607 267 587 290 m 156 102 q 173 104 165 102 q 216 181 205 114 q 155 205 197 201 q 138 201 146 205 q 111 151 111 189 q 115 131 111 141 q 156 102 125 102 z "},"":{"ha":868,"x_min":233,"x_max":728,"o":"m 279 280 q 256 287 267 280 q 233 326 233 301 q 247 359 233 344 l 319 431 q 293 528 294 474 q 319 625 293 581 l 247 697 q 233 730 233 711 q 239 753 233 741 q 279 776 254 776 q 311 762 296 776 l 384 690 q 481 716 429 715 q 578 690 532 716 l 650 762 q 682 776 664 775 q 705 770 694 776 q 728 730 728 755 q 715 697 728 711 l 642 625 q 669 528 668 581 q 642 431 669 476 l 715 359 q 728 326 728 345 q 722 304 728 315 q 682 280 708 280 q 650 294 665 280 l 578 367 q 481 340 533 340 q 384 367 429 340 l 311 294 q 279 280 299 281 m 481 625 q 422 604 449 625 q 384 528 384 574 q 405 469 384 496 q 481 431 435 431 q 539 452 513 431 q 578 528 578 481 q 557 587 578 560 q 481 625 528 625 z "},"":{"ha":810,"x_min":84,"x_max":701,"o":"m 267 281 q 338 281 267 281 l 338 401 q 281 402 315 401 q 267 402 269 402 q 247 405 256 402 q 210 455 210 414 q 216 476 210 467 q 267 500 230 500 l 339 500 l 339 587 l 96 945 q 84 982 85 963 q 104 1026 85 1007 q 141 1040 119 1039 q 184 1020 167 1039 l 392 718 l 602 1020 q 646 1040 620 1039 q 683 1026 667 1040 q 701 982 701 1009 q 690 945 701 962 l 449 590 l 449 500 l 518 500 q 549 494 535 500 q 573 451 573 480 q 571 439 573 446 q 517 401 562 401 l 449 401 l 449 281 l 518 281 q 549 275 535 281 q 573 232 573 261 q 571 220 573 227 q 517 182 562 182 l 448 182 l 448 56 q 440 26 448 39 q 393 2 426 2 q 382 3 388 3 q 338 58 338 13 l 338 182 q 280 183 314 182 q 267 183 269 183 q 247 186 256 183 q 210 236 210 195 q 216 257 210 248 q 267 281 230 281 z "},"":{"ha":463,"x_min":178,"x_max":277,"o":"m 277 324 q 277 0 277 324 q 271 -29 277 -16 q 225 -56 258 -56 q 216 -54 221 -55 q 178 1 178 -44 l 178 324 q 180 340 178 332 q 231 380 188 380 q 254 374 243 380 q 277 324 277 359 m 277 994 l 277 670 q 271 641 277 654 q 225 614 258 614 q 216 616 221 615 q 178 671 178 626 l 178 994 q 180 1010 178 1002 q 231 1050 188 1050 q 254 1044 243 1050 q 277 994 277 1029 z "},"":{"ha":767,"x_min":170,"x_max":611,"o":"m 532 170 q 495 62 532 109 q 362 0 446 0 q 249 44 298 0 q 193 170 193 95 q 209 235 193 199 q 281 295 237 295 q 305 290 294 295 q 334 249 334 278 q 319 212 334 232 q 301 168 302 193 q 311 135 301 151 q 366 105 331 105 q 399 115 383 105 q 428 171 428 134 q 406 224 427 191 l 202 505 q 184 536 192 522 q 170 606 170 568 q 177 654 170 630 q 261 756 197 720 q 246 820 247 789 q 254 872 246 846 q 334 970 275 939 q 415 990 371 990 q 530 943 480 990 q 585 821 585 892 q 568 754 585 789 q 497 695 541 695 q 480 697 488 695 q 446 740 446 705 q 458 774 446 759 q 477 822 476 796 q 467 854 477 839 q 412 884 448 884 q 379 874 395 884 q 350 820 350 854 q 372 766 351 801 q 418 703 386 746 q 579 479 570 493 q 595 453 588 466 q 611 380 611 422 q 606 340 611 361 q 518 229 588 269 q 532 170 531 197 m 273 605 q 290 560 273 585 q 378 437 310 530 q 464 319 440 353 l 469 321 q 484 329 476 323 q 507 380 507 349 q 494 420 507 398 l 316 667 q 314 666 315 667 q 273 605 273 651 z "},"":{"ha":532,"x_min":160,"x_max":413,"o":"m 160 743 q 167 768 160 756 q 210 793 181 793 q 233 787 222 793 q 259 743 259 773 q 253 720 259 731 q 210 694 239 694 q 186 700 197 694 q 160 743 160 714 m 313 741 q 319 765 313 753 q 363 791 334 791 q 387 785 375 791 q 413 741 413 771 q 407 718 413 729 q 363 692 393 692 q 339 698 350 692 q 313 741 313 711 z "},"":{"ha":887,"x_min":111,"x_max":786,"o":"m 544 431 q 529 401 537 415 q 433 334 489 334 q 377 359 402 334 q 336 470 336 398 q 336 477 336 473 q 377 589 340 532 q 465 654 418 654 q 520 632 495 654 q 554 560 553 602 q 551 549 553 555 q 515 529 540 529 q 488 541 498 529 q 487 542 488 541 q 462 573 466 573 q 433 536 448 572 q 418 470 418 495 q 418 454 418 462 q 437 416 422 416 q 468 450 446 416 q 469 452 469 451 q 505 473 482 473 q 520 469 511 473 q 545 439 545 457 q 544 431 545 434 m 111 500 q 116 562 111 531 q 229 758 138 679 q 449 839 324 839 q 511 833 480 839 q 705 720 627 811 q 786 500 786 625 q 780 436 786 468 q 667 243 758 321 q 449 162 572 162 q 385 168 417 162 q 192 281 269 191 q 111 500 111 376 m 208 499 q 208 488 208 494 q 282 324 213 391 q 452 256 353 256 q 463 256 458 256 q 629 330 562 260 q 697 499 697 401 q 697 508 697 503 q 623 675 694 607 q 452 743 553 743 q 444 743 448 743 q 277 670 345 740 q 208 499 208 600 z "},"":{"ha":534,"x_min":69,"x_max":474,"o":"m 69 535 q 69 543 69 539 q 113 691 72 622 q 235 774 163 774 q 279 766 256 774 q 307 774 290 774 q 321 773 315 774 q 346 725 346 766 q 342 687 346 716 q 339 649 340 663 q 329 524 329 540 q 332 500 329 511 q 357 473 340 473 q 395 491 369 473 q 439 511 420 510 q 456 505 448 511 q 474 473 474 492 q 442 423 473 449 q 347 389 398 389 q 267 433 295 389 q 170 389 219 389 q 127 397 146 389 q 69 535 69 427 m 222 513 q 229 534 225 519 q 257 695 249 613 l 250 695 q 182 639 211 694 q 155 521 155 583 q 170 476 155 477 q 179 478 174 476 q 222 513 200 487 z "},"":{"ha":955,"x_min":-1,"x_max":789,"o":"m -1 356 q 25 406 -1 386 l 348 634 q 377 642 364 642 q 407 634 393 642 q 435 585 435 617 q 402 532 432 557 l 159 356 q 170 349 164 353 q 386 189 283 275 q 435 124 433 153 q 427 96 435 109 q 377 68 410 68 q 342 79 358 68 l 25 308 q -1 356 0 327 m 353 356 q 379 406 353 386 l 702 634 q 731 642 718 642 q 761 634 747 642 q 789 585 789 617 q 756 532 786 557 l 514 356 q 741 189 608 295 l 758 176 q 789 124 788 153 q 781 96 789 109 q 731 68 764 68 q 696 79 712 68 l 379 308 q 353 356 354 326 z "},"":{"ha":714,"x_min":106,"x_max":593,"o":"m 163 348 q 537 347 163 348 q 588 318 572 347 q 593 295 593 307 q 582 167 593 283 q 578 147 581 157 q 535 112 565 112 q 517 115 526 112 q 486 163 486 125 l 494 248 q 227 249 425 248 q 163 249 169 249 q 144 251 153 249 q 106 302 106 260 q 112 324 106 314 q 163 348 127 348 z "},"":{"ha":868,"x_min":106,"x_max":781,"o":"m 417 415 q 410 361 417 415 q 409 356 410 359 q 375 332 403 332 q 368 332 372 332 q 340 369 340 336 q 375 634 340 373 q 381 648 376 641 q 411 664 393 664 q 434 665 418 664 q 452 666 448 666 q 553 585 552 666 q 467 465 552 503 l 543 397 q 564 363 563 380 q 561 349 564 356 q 526 330 551 330 q 417 415 513 332 m 442 598 l 432 526 q 435 527 433 526 q 481 585 481 545 q 481 587 481 586 q 450 600 477 600 q 446 599 449 600 q 442 598 443 598 m 106 500 q 111 562 106 531 q 224 758 133 679 q 444 839 319 839 q 507 833 475 839 q 700 720 622 811 q 781 500 781 625 q 775 436 781 468 q 662 243 753 321 q 444 162 567 162 q 380 168 412 162 q 187 281 264 191 q 106 500 106 376 m 203 499 q 203 488 203 494 q 277 324 208 391 q 448 256 349 256 q 458 256 453 256 q 625 330 557 260 q 692 499 692 401 q 692 508 692 503 q 618 675 689 607 q 448 743 548 743 q 439 743 444 743 q 273 670 340 740 q 203 499 203 600 z "},"":{"ha":767,"x_min":148,"x_max":609,"o":"m 205 1044 q 554 1044 205 1044 q 580 1040 568 1044 q 609 993 609 1027 q 607 980 609 987 q 553 945 595 945 l 205 945 q 186 947 195 945 q 148 998 148 956 q 155 1021 148 1010 q 205 1044 170 1044 z "},"":{"ha":347,"x_min":0,"x_max":229,"o":"m 114 863 q 43 887 75 863 q 0 978 0 922 q 25 1048 0 1017 q 114 1092 60 1092 q 187 1065 155 1092 q 229 978 229 1031 q 204 905 229 938 q 114 863 170 863 m 114 1026 q 90 1020 102 1026 q 64 978 64 1006 q 71 953 64 965 q 114 928 85 928 q 138 934 126 928 q 163 978 163 948 q 158 1000 163 989 q 114 1026 144 1026 z "},"":{"ha":656,"x_min":98,"x_max":559,"o":"m 379 796 q 379 677 379 796 l 504 677 q 531 671 519 677 q 559 625 559 659 q 557 612 559 618 q 503 577 545 577 l 379 577 l 379 447 q 374 421 379 433 q 328 392 362 392 q 315 394 321 392 q 280 448 280 406 l 280 577 l 155 577 q 135 579 144 577 q 98 631 98 589 q 104 654 98 643 q 155 677 120 677 l 280 677 l 280 796 q 282 814 280 806 q 333 853 291 853 q 356 846 345 853 q 379 796 379 831 m 155 312 l 504 312 q 530 307 518 312 q 559 260 559 295 q 557 248 559 254 q 503 213 545 213 l 155 213 q 136 215 145 213 q 98 266 98 224 q 104 288 98 278 q 155 312 119 312 z "},"":{"ha":960,"x_min":292,"x_max":597,"o":"m 444 1048 q 545 1006 500 1048 q 593 897 593 961 q 551 792 593 850 l 431 621 l 545 621 q 572 616 561 621 q 597 575 597 604 q 596 566 597 570 q 544 526 587 526 l 346 526 q 328 528 336 526 q 292 576 292 537 q 307 613 294 598 q 321 631 309 616 q 478 852 414 757 q 481 856 479 854 q 498 897 498 882 q 490 924 498 910 q 446 951 473 951 q 420 944 432 951 q 392 897 392 928 q 406 860 392 875 q 420 827 420 844 q 416 807 420 817 q 372 784 404 784 q 316 821 340 785 q 293 897 293 858 q 333 999 293 955 q 444 1048 378 1048 z "},"":{"ha":817,"x_min":198,"x_max":564,"o":"m 229 995 q 235 1019 229 1007 q 278 1044 250 1044 l 500 1044 q 523 1040 513 1044 q 549 995 549 1027 q 534 960 549 974 l 453 896 q 505 860 481 882 q 564 720 564 803 q 510 587 564 643 q 367 527 452 527 q 273 553 320 527 q 203 621 222 582 q 198 644 198 637 q 204 668 198 656 q 247 693 218 693 q 286 673 265 692 q 370 624 321 625 q 428 642 402 624 q 467 720 467 671 q 448 777 467 751 q 370 817 420 817 q 318 789 353 814 q 283 777 303 778 q 266 780 274 777 q 237 822 237 789 q 267 871 238 848 l 362 947 l 278 947 q 254 953 266 947 q 229 995 229 967 z "},"":{"ha":734,"x_min":290,"x_max":481,"o":"m 461 749 q 377 667 439 730 q 338 649 358 650 q 315 655 326 649 q 290 699 290 669 q 308 739 290 722 l 391 820 q 431 840 411 839 q 455 833 444 840 q 481 792 481 818 q 461 749 480 769 z "},"":{"ha":608,"x_min":1,"x_max":705,"o":"m 380 367 q 394 522 386 408 q 395 532 395 528 q 448 576 404 576 q 490 521 488 576 q 488 494 489 509 q 473 224 473 292 q 480 165 473 193 q 535 106 496 106 q 549 107 542 106 q 607 139 569 112 q 667 166 644 166 q 684 161 675 166 q 705 121 705 148 q 704 115 705 119 q 648 48 699 83 q 522 5 585 5 q 402 82 438 6 q 239 8 342 9 q 146 39 184 8 q 113 -232 118 -174 q 99 -277 111 -256 q 51 -309 79 -309 q 28 -303 39 -309 q 1 -245 1 -288 q 100 504 1 -238 q 107 541 103 526 q 157 583 120 583 q 174 581 165 583 q 203 524 203 573 q 199 479 203 514 q 180 255 180 303 q 180 228 180 241 q 256 117 186 117 q 380 367 345 122 z "},"":{"ha":767,"x_min":51,"x_max":741,"o":"m 699 1043 q 714 1038 706 1042 q 741 1000 741 1026 l 610 44 q 606 29 608 37 q 553 0 591 0 q 543 1 548 0 q 509 46 509 7 q 633 943 509 53 l 515 943 l 391 44 q 387 31 390 37 q 333 0 373 0 q 323 1 328 0 q 290 46 290 7 q 351 489 290 96 q 222 463 278 463 q 51 679 54 464 q 54 720 51 698 q 118 924 66 832 q 288 1044 187 1044 q 699 1043 692 1044 z "},"":{"ha":314,"x_min":92,"x_max":215,"o":"m 92 301 q 101 334 92 319 q 153 363 119 363 q 185 355 170 363 q 215 301 215 337 q 206 270 215 284 q 153 240 189 240 q 121 249 136 240 q 92 301 92 267 z "},"":{"ha":960,"x_min":296,"x_max":499,"o":"m 425 85 q 430 85 427 85 q 450 56 450 81 q 409 -20 449 39 q 418 -22 413 -20 q 499 -117 499 -41 q 491 -163 499 -142 q 386 -222 467 -222 q 338 -208 363 -222 q 296 -149 296 -183 q 297 -142 296 -145 q 321 -125 302 -125 q 351 -142 334 -125 q 382 -159 368 -159 q 404 -154 394 -159 q 429 -113 429 -141 q 424 -92 429 -102 q 382 -68 411 -68 q 363 -77 374 -68 q 336 -90 347 -90 q 330 -89 334 -90 q 313 -67 313 -83 q 321 -44 313 -55 l 391 64 q 425 85 406 84 z "},"":{"ha":960,"x_min":269,"x_max":534,"o":"m 353 807 q 317 791 338 791 q 298 794 307 791 q 269 840 269 805 q 286 880 269 862 q 406 991 343 933 q 443 1026 438 1022 q 445 1028 444 1027 q 484 1046 463 1046 q 493 1045 488 1046 q 534 1003 534 1041 q 531 981 534 1003 q 524 923 528 959 q 515 843 520 887 q 504 753 510 799 q 494 667 498 707 q 485 596 489 627 q 479 555 481 566 q 429 507 473 508 q 403 514 414 507 q 377 563 377 529 q 384 621 377 572 q 417 868 399 732 q 353 807 365 817 z "},"":{"ha":425,"x_min":92,"x_max":321,"o":"m 206 690 q 136 714 167 690 q 92 805 92 749 q 117 876 92 844 q 206 919 152 919 q 279 892 247 919 q 321 805 321 858 q 296 732 321 765 q 206 690 262 690 m 206 853 q 182 847 194 853 q 157 805 157 833 q 163 780 157 792 q 206 755 178 755 q 230 761 218 755 q 256 805 256 775 q 250 827 256 817 q 206 853 237 853 z "},"":{"ha":1013,"x_min":231,"x_max":1021,"o":"m 1021 356 q 994 308 1021 328 l 677 79 q 642 68 661 68 q 613 75 627 68 q 585 124 585 92 q 633 189 587 150 q 635 191 634 189 q 860 356 786 309 l 617 532 q 585 585 585 556 q 592 613 585 600 q 642 642 608 642 q 671 634 654 642 l 994 406 q 1021 356 1020 387 m 667 356 q 640 308 667 328 l 323 79 q 288 68 308 68 q 258 76 273 68 q 231 124 231 92 q 278 189 231 152 q 295 201 284 193 q 505 356 441 314 l 263 532 q 260 534 262 533 q 231 585 231 557 q 239 614 231 600 q 288 642 256 642 q 317 634 300 642 l 640 406 q 667 356 666 387 z "},"":{"ha":1099,"x_min":85,"x_max":941,"o":"m 189 77 q 670 985 189 77 q 673 990 671 987 q 716 1013 690 1013 q 729 1012 723 1013 q 762 967 762 1004 q 753 937 762 955 q 707 850 745 922 q 273 35 288 68 q 227 5 254 6 q 205 10 216 5 q 181 47 181 22 q 189 77 181 61 m 170 792 q 134 776 155 777 q 115 779 124 776 q 85 825 85 790 q 103 865 85 846 l 104 865 l 104 866 q 260 1011 213 971 q 262 1013 260 1012 q 301 1031 280 1031 q 310 1030 305 1031 q 351 988 351 1026 l 348 966 q 341 908 345 944 q 332 828 337 872 q 321 738 327 784 q 311 652 315 692 q 302 581 306 612 q 296 540 298 551 q 246 492 290 493 q 219 500 231 492 q 194 547 194 515 q 201 609 194 557 q 235 853 217 721 q 229 848 233 851 q 170 792 178 799 m 604 244 l 637 492 q 640 505 637 499 q 688 540 652 540 q 712 532 700 540 q 739 490 739 517 q 737 459 739 475 q 723 362 736 450 l 711 281 l 835 281 q 840 313 838 301 q 844 329 840 321 q 890 361 856 361 q 914 355 902 361 q 941 308 941 339 l 909 50 q 858 0 901 1 q 833 6 844 0 q 806 56 806 20 q 810 81 806 59 q 823 180 816 129 l 654 180 q 628 186 640 180 q 604 233 604 201 l 604 244 z "},"":{"ha":1099,"x_min":85,"x_max":925,"o":"m 187 79 q 669 985 187 79 q 673 992 671 988 q 715 1015 690 1015 q 728 1013 722 1015 q 760 968 760 1005 q 752 939 760 956 q 705 851 744 924 q 271 36 286 70 q 227 7 252 7 q 205 11 216 7 q 180 48 180 22 q 187 79 180 63 m 772 524 q 873 481 829 524 q 922 372 922 435 q 879 267 922 323 q 759 97 869 253 l 873 97 q 899 92 888 97 q 925 51 925 80 q 924 41 925 47 q 872 1 916 1 l 673 1 q 654 3 663 1 q 619 52 619 13 q 635 89 621 72 q 645 102 637 91 q 806 328 742 232 q 809 332 808 330 q 826 372 826 357 q 817 399 826 386 q 774 427 800 427 q 746 419 759 427 q 720 372 720 403 q 734 336 720 349 q 749 302 748 317 q 743 281 749 291 q 700 259 730 259 q 644 296 667 260 q 621 372 621 334 q 661 475 621 431 q 772 524 707 524 m 170 792 q 134 776 155 777 q 115 779 124 776 q 85 825 85 790 q 103 865 85 846 l 104 865 l 104 866 q 260 1011 213 971 q 262 1013 260 1012 q 301 1031 280 1031 l 306 1031 q 312 1030 309 1031 q 351 988 351 1025 q 348 966 351 988 q 341 908 345 944 q 332 828 337 872 q 321 738 327 784 q 311 652 315 692 q 302 581 306 612 q 296 540 298 551 q 246 492 290 493 q 219 500 231 492 q 194 547 194 515 q 201 609 194 557 q 235 853 217 721 q 229 848 233 851 q 170 792 178 799 z "},"":{"ha":1099,"x_min":85,"x_max":1040,"o":"m 117 968 q 123 992 117 981 q 165 1018 136 1018 l 387 1018 q 410 1013 400 1018 q 436 968 436 1001 q 421 934 435 948 l 340 869 q 392 833 369 856 q 451 694 451 776 q 397 560 451 616 q 254 500 339 500 q 161 527 208 500 q 90 593 110 555 q 85 618 85 607 q 92 642 85 630 q 134 667 106 667 q 173 647 153 666 q 257 597 210 598 q 315 616 289 597 q 354 694 354 644 q 336 751 354 725 q 257 791 307 791 q 252 789 255 791 q 205 763 231 783 q 171 751 191 751 q 154 753 162 751 q 125 795 125 762 q 155 845 125 822 l 249 920 l 165 920 q 142 926 153 920 q 117 968 117 940 m 702 245 l 736 494 q 739 505 736 499 q 786 541 749 541 q 810 534 798 541 q 837 491 837 519 q 836 474 837 483 q 822 363 836 452 l 810 282 l 934 282 q 939 315 937 307 q 943 332 939 323 q 989 362 956 362 q 1015 355 1002 362 q 1040 315 1040 340 l 1040 309 l 1008 51 q 957 1 999 2 q 932 7 943 1 q 905 58 905 21 q 908 79 905 60 q 921 181 914 126 l 753 181 q 727 187 739 181 q 702 234 702 201 l 702 245 m 283 68 q 764 975 283 68 q 770 983 766 979 q 810 1004 786 1004 q 824 1002 817 1004 q 855 958 855 994 q 848 928 855 944 q 785 812 838 910 q 367 25 380 57 q 321 -3 349 -3 q 300 1 311 -3 q 275 38 275 13 q 283 68 275 52 z "},"":{"ha":713,"x_min":42,"x_max":606,"o":"m 365 916 q 332 926 347 916 q 302 979 302 943 q 311 1010 302 995 q 365 1040 329 1040 q 397 1031 382 1040 q 426 979 426 1013 q 417 946 426 961 q 365 916 399 916 m 190 35 q 112 97 146 59 q 42 285 42 178 q 127 494 42 382 q 183 557 140 513 q 279 665 259 637 q 281 669 280 667 q 297 741 294 689 q 312 794 300 783 q 353 809 326 808 q 375 804 364 809 q 402 760 402 791 l 402 738 q 363 597 401 656 q 272 496 342 565 q 256 480 264 488 q 157 286 157 378 q 201 175 157 224 q 319 121 250 121 q 427 163 380 121 q 481 279 481 210 q 440 395 481 343 q 422 437 422 418 q 427 458 422 448 q 479 484 441 484 q 577 402 538 484 q 606 283 606 340 q 603 240 606 262 q 506 71 586 140 q 322 1 425 1 q 190 35 252 1 z "},"":{"ha":770,"x_min":-66,"x_max":664,"o":"m 458 1225 q 478 1182 477 1205 q 469 1156 478 1169 q 429 1135 453 1135 q 388 1154 409 1135 l 305 1235 q 287 1275 288 1252 q 294 1301 287 1289 q 335 1325 309 1325 q 386 1295 355 1325 q 458 1225 452 1230 m 475 1024 q 482 1006 479 1017 q 662 69 498 950 q 664 56 664 62 q 656 28 664 41 q 611 0 640 0 q 602 1 607 0 q 560 38 570 6 l 499 348 l 187 348 l 41 37 q 34 27 38 32 q -12 0 13 0 q -41 9 -28 0 q -66 54 -66 26 q -62 71 -66 62 q -16 173 -48 103 q 374 1013 310 885 q 426 1051 392 1050 q 475 1024 458 1050 m 407 815 l 239 461 l 476 461 l 407 815 z "},"":{"ha":770,"x_min":-66,"x_max":664,"o":"m 511 1239 q 427 1157 490 1219 q 388 1139 408 1139 q 366 1145 376 1139 q 340 1188 340 1159 q 358 1229 340 1211 l 441 1310 q 481 1329 461 1329 q 505 1322 494 1329 q 531 1282 531 1308 q 511 1239 530 1259 m 475 1024 q 482 1006 479 1017 q 662 69 498 950 q 664 56 664 62 q 656 28 664 41 q 611 0 640 0 q 602 1 607 0 q 560 38 570 6 l 499 348 l 187 348 l 41 37 q 34 27 38 32 q -12 0 13 0 q -41 9 -28 0 q -66 54 -66 26 q -62 71 -66 62 q -16 173 -48 103 q 374 1013 310 885 q 426 1051 392 1050 q 475 1024 458 1050 m 407 815 l 239 461 l 476 461 l 407 815 z "},"":{"ha":770,"x_min":-66,"x_max":664,"o":"m 296 1179 q 314 1220 296 1201 q 404 1308 321 1225 q 444 1325 422 1324 q 485 1308 467 1325 q 584 1211 582 1211 q 584 1211 584 1211 q 584 1211 584 1211 q 602 1171 602 1197 q 596 1149 602 1160 q 556 1126 582 1126 q 518 1145 536 1126 l 446 1219 l 380 1154 q 342 1136 362 1137 q 321 1141 332 1136 q 296 1179 296 1154 m 475 1024 q 482 1006 479 1017 q 662 69 498 950 q 664 56 664 62 q 656 28 664 41 q 611 0 640 0 q 602 1 607 0 q 560 38 570 6 l 499 348 l 187 348 l 41 37 q 34 27 38 32 q -12 0 13 0 q -41 9 -28 0 q -66 54 -66 26 q -62 71 -66 62 q -16 173 -48 103 q 374 1013 310 885 q 426 1051 392 1050 q 475 1024 458 1050 m 407 815 l 239 461 l 476 461 l 407 815 z "},"":{"ha":770,"x_min":-66,"x_max":664,"o":"m 595 1324 q 614 1319 605 1324 q 637 1281 637 1307 q 618 1223 637 1257 q 521 1166 585 1166 q 501 1168 511 1166 q 423 1214 463 1174 q 419 1218 421 1216 q 384 1238 398 1238 q 353 1202 363 1236 q 348 1187 352 1195 q 311 1164 336 1164 q 292 1169 301 1164 q 269 1207 269 1181 q 287 1266 269 1232 q 384 1324 322 1323 q 411 1320 397 1324 q 479 1276 438 1312 q 521 1250 509 1250 q 552 1285 542 1251 q 557 1300 553 1293 q 595 1324 570 1324 m 475 1024 q 482 1006 479 1017 q 662 69 498 950 q 664 56 664 62 q 656 28 664 41 q 611 0 640 0 q 602 1 607 0 q 560 38 570 6 l 499 348 l 187 348 l 41 37 q 34 27 38 32 q -12 0 13 0 q -41 9 -28 0 q -66 54 -66 26 q -62 71 -66 62 q -16 173 -48 103 q 374 1013 310 885 q 426 1051 392 1050 q 475 1024 458 1050 m 407 815 l 239 461 l 476 461 l 407 815 z "},"":{"ha":770,"x_min":-66,"x_max":664,"o":"m 323 1227 q 330 1253 323 1240 q 373 1278 345 1278 q 397 1272 385 1278 q 422 1227 422 1257 q 416 1204 422 1215 q 373 1178 403 1178 q 349 1184 361 1178 q 323 1227 323 1198 m 477 1225 q 483 1249 477 1238 q 526 1275 497 1275 q 550 1269 538 1275 q 576 1225 576 1255 q 570 1202 576 1213 q 526 1176 556 1176 q 503 1182 513 1176 q 477 1225 477 1196 m 475 1024 q 482 1006 479 1017 q 662 69 498 950 q 664 56 664 62 q 656 28 664 41 q 611 0 640 0 q 602 1 607 0 q 560 38 570 6 l 499 348 l 187 348 l 41 37 q 34 27 38 32 q -12 0 13 0 q -41 9 -28 0 q -66 54 -66 26 q -62 71 -66 62 q -16 173 -48 103 q 374 1013 310 885 q 426 1051 392 1050 q 475 1024 458 1050 m 407 815 l 239 461 l 476 461 l 407 815 z "},"":{"ha":770,"x_min":-66,"x_max":664,"o":"m 336 1215 q 359 1282 336 1253 q 445 1324 392 1324 q 511 1301 481 1324 q 553 1215 553 1269 q 530 1148 553 1178 q 445 1107 497 1107 q 378 1131 408 1107 q 336 1215 336 1163 m 402 1215 q 407 1196 402 1205 q 445 1173 419 1173 q 465 1177 455 1173 q 488 1215 488 1190 q 483 1235 488 1225 q 445 1258 471 1258 q 425 1253 435 1258 q 402 1215 402 1241 m 475 1024 q 482 1006 479 1017 q 662 69 498 950 q 664 56 664 62 q 656 28 664 41 q 611 0 640 0 q 602 1 607 0 q 560 38 570 6 l 499 348 l 187 348 l 41 37 q 34 27 38 32 q -12 0 13 0 q -41 9 -28 0 q -66 54 -66 26 q -62 71 -66 62 q -16 173 -48 103 q 374 1013 310 885 q 426 1051 392 1050 q 475 1024 458 1050 m 407 815 l 239 461 l 476 461 l 407 815 z "},"":{"ha":1291,"x_min":-69,"x_max":1305,"o":"m 765 1031 q 821 1054 789 1054 l 1245 1054 q 1305 1011 1299 1054 q 1302 989 1305 1000 q 1251 951 1290 956 q 853 947 1246 951 l 805 567 l 1095 567 q 1105 566 1100 567 q 1151 517 1151 561 q 1146 495 1151 506 q 1097 463 1133 468 q 791 460 1087 461 q 781 373 787 422 q 745 105 749 149 l 1141 105 q 1199 56 1198 105 q 1194 33 1199 44 q 1145 1 1180 5 q 686 -1 1133 0 q 658 9 671 -1 q 633 62 633 28 q 665 311 640 123 q 685 461 682 431 l 684 461 l 684 461 q 408 463 496 463 l 23 24 q -20 1 5 2 q -45 8 -34 1 q -69 52 -69 23 q -61 79 -69 67 q 309 504 18 174 q 765 1031 680 922 m 700 568 q 736 836 700 568 l 502 570 q 582 569 526 570 q 700 568 657 568 z "},"":{"ha":769,"x_min":33,"x_max":689,"o":"m 583 810 q 547 877 568 847 q 430 947 494 947 q 347 916 389 947 q 209 718 267 859 q 149 433 149 573 q 192 210 149 299 q 323 111 240 111 q 410 146 362 111 q 538 309 484 202 q 542 317 539 313 q 587 344 557 344 q 614 337 602 344 q 642 290 642 321 q 635 263 642 278 q 530 106 591 171 q 373 7 456 28 q 355 -20 366 -5 q 365 -22 359 -20 q 446 -117 446 -41 q 437 -163 446 -142 q 332 -222 413 -222 q 284 -208 309 -222 q 243 -149 243 -183 q 243 -142 243 -145 q 268 -125 248 -125 q 297 -142 280 -125 q 329 -159 314 -159 q 351 -154 340 -159 q 375 -113 375 -141 q 370 -92 375 -102 q 329 -68 357 -68 q 310 -77 321 -68 q 283 -90 293 -90 q 276 -89 280 -90 q 260 -67 260 -83 q 267 -44 260 -55 l 296 1 q 282 2 290 1 q 109 126 178 17 q 33 430 33 248 q 64 650 33 538 q 215 940 113 825 q 440 1059 321 1059 q 537 1037 491 1059 q 684 853 635 988 q 689 828 689 840 q 682 801 689 814 q 635 774 665 774 q 583 810 604 776 z "},"":{"ha":749,"x_min":39,"x_max":713,"o":"m 519 1225 q 539 1183 538 1206 q 530 1157 539 1170 q 490 1135 514 1135 q 449 1155 470 1135 l 366 1236 q 348 1276 349 1253 q 355 1301 348 1289 q 396 1326 370 1326 q 447 1295 416 1326 q 519 1225 513 1231 m 216 1051 q 650 1051 216 1051 q 675 1048 664 1051 q 713 996 713 1036 q 708 976 713 985 q 654 941 694 947 l 263 941 l 216 570 l 497 570 q 528 564 513 570 q 561 513 561 549 q 557 494 561 503 q 502 458 545 465 l 202 458 l 157 112 l 543 112 q 572 107 559 112 q 608 56 608 93 q 605 39 608 47 q 549 0 594 7 l 97 0 q 66 9 80 0 q 39 66 39 27 q 161 1000 39 75 q 167 1019 163 1010 q 216 1051 181 1051 z "},"":{"ha":749,"x_min":39,"x_max":713,"o":"m 505 1235 q 421 1153 484 1215 q 382 1135 402 1135 q 359 1141 370 1135 q 334 1184 334 1155 q 352 1225 334 1207 l 435 1305 q 475 1325 455 1324 q 499 1318 488 1325 q 525 1278 525 1303 q 505 1235 524 1255 m 216 1051 q 650 1051 216 1051 q 675 1048 664 1051 q 713 996 713 1036 q 708 976 713 985 q 654 941 694 947 l 263 941 l 216 570 l 497 570 q 528 564 513 570 q 561 513 561 549 q 557 494 561 503 q 502 458 545 465 l 202 458 l 157 112 l 543 112 q 572 107 559 112 q 608 56 608 93 q 605 39 608 47 q 549 0 594 7 l 97 0 q 66 9 80 0 q 39 66 39 27 q 161 1000 39 75 q 167 1019 163 1010 q 216 1051 181 1051 z "},"":{"ha":749,"x_min":39,"x_max":713,"o":"m 285 1179 q 303 1220 286 1201 q 393 1308 310 1225 q 433 1325 411 1324 q 474 1308 456 1325 q 573 1211 571 1211 q 573 1211 573 1211 q 573 1211 573 1211 q 591 1171 591 1197 q 585 1149 591 1160 q 545 1126 571 1126 q 507 1145 525 1126 l 435 1219 l 369 1154 q 331 1136 351 1137 q 310 1141 321 1136 q 285 1179 285 1154 m 216 1051 q 650 1051 216 1051 q 675 1048 664 1051 q 713 996 713 1036 q 708 976 713 985 q 654 941 694 947 l 263 941 l 216 570 l 497 570 q 528 564 513 570 q 561 513 561 549 q 557 494 561 503 q 502 458 545 465 l 202 458 l 157 112 l 543 112 q 572 107 559 112 q 608 56 608 93 q 605 39 608 47 q 549 0 594 7 l 97 0 q 66 9 80 0 q 39 66 39 27 q 161 1000 39 75 q 167 1019 163 1010 q 216 1051 181 1051 z "},"":{"ha":749,"x_min":39,"x_max":713,"o":"m 321 1221 q 328 1246 321 1234 q 370 1272 342 1272 q 394 1265 382 1272 q 420 1221 420 1251 q 414 1198 420 1209 q 370 1172 400 1172 q 347 1178 358 1172 q 321 1221 321 1192 m 474 1219 q 480 1243 474 1232 q 524 1269 494 1269 q 547 1263 536 1269 q 574 1219 574 1249 q 568 1196 574 1207 q 524 1170 553 1170 q 500 1176 511 1170 q 474 1219 474 1190 m 216 1051 q 650 1051 216 1051 q 675 1048 664 1051 q 713 996 713 1036 q 708 976 713 985 q 654 941 694 947 l 263 941 l 216 570 l 497 570 q 528 564 513 570 q 561 513 561 549 q 557 494 561 503 q 502 458 545 465 l 202 458 l 157 112 l 543 112 q 572 107 559 112 q 608 56 608 93 q 605 39 608 47 q 549 0 594 7 l 97 0 q 66 9 80 0 q 39 66 39 27 q 161 1000 39 75 q 167 1019 163 1010 q 216 1051 181 1051 z "},"":{"ha":461,"x_min":50,"x_max":357,"o":"m 338 1225 q 357 1182 357 1205 q 349 1156 357 1169 q 308 1135 332 1135 q 267 1154 288 1135 l 184 1235 q 166 1275 167 1252 q 173 1301 166 1289 q 214 1325 188 1325 q 265 1295 235 1325 q 338 1225 331 1230 m 159 54 q 105 -1 149 -1 q 76 7 89 -1 q 50 64 50 25 q 173 998 50 64 q 178 1018 174 1008 q 227 1051 192 1051 q 253 1044 241 1051 q 281 998 280 1029 q 159 54 165 87 z "},"":{"ha":467,"x_min":50,"x_max":361,"o":"m 341 1235 q 257 1153 319 1215 q 218 1135 238 1135 q 195 1141 206 1135 q 170 1184 170 1155 q 188 1225 170 1207 l 271 1305 q 311 1325 291 1324 q 335 1318 323 1325 q 361 1278 361 1303 q 341 1235 360 1255 m 159 54 q 105 -1 149 -1 q 76 7 89 -1 q 50 64 50 25 q 173 998 50 64 q 178 1018 174 1008 q 227 1051 192 1051 q 253 1044 241 1051 q 281 998 280 1029 q 159 54 165 87 z "},"":{"ha":510,"x_min":50,"x_max":404,"o":"m 98 1179 q 116 1220 98 1201 q 206 1308 123 1225 q 245 1325 224 1324 q 287 1308 269 1325 q 386 1211 384 1211 q 386 1211 386 1211 q 386 1211 386 1211 q 404 1171 404 1197 q 398 1149 404 1160 q 358 1126 384 1126 q 320 1145 338 1126 l 248 1219 l 182 1154 q 144 1136 164 1137 q 123 1141 134 1136 q 98 1179 98 1154 m 159 54 q 105 -1 149 -1 q 76 7 89 -1 q 50 64 50 25 q 173 998 50 64 q 178 1018 174 1008 q 227 1051 192 1051 q 253 1044 241 1051 q 281 998 280 1029 q 159 54 165 87 z "},"":{"ha":483,"x_min":50,"x_max":380,"o":"m 127 1221 q 134 1246 127 1234 q 176 1272 148 1272 q 200 1265 189 1272 q 226 1221 226 1251 q 220 1198 226 1209 q 176 1172 206 1172 q 153 1178 164 1172 q 127 1221 127 1192 m 280 1219 q 286 1243 280 1232 q 330 1269 300 1269 q 353 1263 342 1269 q 380 1219 380 1249 q 374 1196 380 1207 q 330 1170 359 1170 q 306 1176 317 1170 q 280 1219 280 1190 m 159 54 q 105 -1 149 -1 q 76 7 89 -1 q 50 64 50 25 q 173 998 50 64 q 178 1018 174 1008 q 227 1051 192 1051 q 253 1044 241 1051 q 281 998 280 1029 q 159 54 165 87 z "},"":{"ha":795,"x_min":-11,"x_max":719,"o":"m 251 1048 q 318 1051 272 1051 q 523 1013 435 1051 q 719 670 719 926 q 715 574 719 621 q 469 96 687 243 q 129 0 325 0 q 94 11 109 0 q 66 73 66 31 q 111 410 66 79 l 58 410 q 38 413 49 410 q -11 473 -11 425 q -9 488 -11 480 q 53 536 0 528 q 127 538 71 538 q 188 989 149 703 q 196 1016 189 1003 q 251 1048 214 1047 m 254 540 l 364 540 q 382 538 373 540 q 435 476 435 529 q 429 451 435 463 q 370 414 413 420 q 327 413 366 414 q 237 412 270 412 q 200 130 208 180 q 219 132 209 131 q 427 218 335 144 q 600 665 600 358 q 570 812 600 752 q 346 930 511 930 q 302 928 328 930 l 254 540 z "},"":{"ha":906,"x_min":28,"x_max":815,"o":"m 659 1324 q 679 1319 669 1324 q 702 1281 702 1307 q 682 1223 702 1257 q 585 1166 649 1166 q 566 1168 576 1166 q 488 1214 528 1174 q 484 1218 486 1216 q 448 1238 463 1238 q 417 1202 427 1236 q 412 1187 416 1195 q 376 1164 400 1164 q 356 1169 366 1164 q 333 1207 333 1181 q 351 1266 333 1232 q 448 1324 387 1323 q 475 1320 462 1324 q 544 1276 503 1312 q 585 1250 573 1250 q 616 1285 606 1251 q 621 1300 618 1293 q 659 1324 634 1324 m 694 53 q 639 0 686 1 q 580 40 604 1 l 236 824 q 221 699 230 768 q 140 56 153 135 q 84 0 130 1 q 55 9 68 0 q 28 66 28 26 q 152 1000 151 997 q 159 1021 154 1011 q 210 1049 176 1049 q 267 1023 254 1049 l 608 256 l 708 997 q 714 1021 709 1009 q 761 1050 728 1050 q 789 1043 775 1050 q 815 996 815 1027 q 809 947 812 973 q 694 53 709 143 z "},"":{"ha":868,"x_min":22,"x_max":907,"o":"m 612 1225 q 631 1182 631 1205 q 623 1156 631 1169 q 582 1135 606 1135 q 541 1154 562 1135 l 458 1235 q 440 1275 441 1252 q 447 1301 440 1289 q 488 1325 462 1325 q 539 1295 509 1325 q 612 1225 605 1230 m 22 430 q 54 653 22 541 q 206 941 104 827 q 429 1059 312 1059 q 616 959 539 1059 q 708 677 697 852 q 774 705 730 685 q 857 732 829 732 q 882 725 870 732 q 907 682 907 710 q 883 632 906 656 q 706 559 833 583 q 680 412 700 484 q 528 117 633 232 q 301 0 422 0 q 271 2 286 0 q 98 126 167 17 q 22 430 22 248 m 138 448 q 173 233 138 325 q 313 111 220 111 q 361 122 336 111 q 500 272 435 156 q 592 549 574 401 q 408 605 491 550 q 252 822 298 678 q 138 448 140 656 m 450 932 q 418 924 433 932 q 381 842 381 903 q 383 819 381 831 q 477 696 395 745 q 595 657 539 659 q 579 765 591 715 q 450 932 542 926 z "},"":{"ha":868,"x_min":22,"x_max":907,"o":"m 582 1234 q 498 1152 560 1214 q 458 1133 479 1134 q 436 1139 447 1133 q 410 1183 410 1154 q 429 1223 410 1206 l 511 1304 q 552 1324 532 1323 q 576 1317 564 1324 q 602 1276 602 1302 q 582 1234 601 1253 m 22 430 q 54 653 22 541 q 206 941 104 827 q 429 1059 312 1059 q 616 959 539 1059 q 708 677 697 852 q 774 705 730 685 q 857 732 829 732 q 882 725 870 732 q 907 682 907 710 q 883 632 906 656 q 706 559 833 583 q 680 412 700 484 q 528 117 633 232 q 301 0 422 0 q 271 2 286 0 q 98 126 167 17 q 22 430 22 248 m 138 448 q 173 233 138 325 q 313 111 220 111 q 361 122 336 111 q 500 272 435 156 q 592 549 574 401 q 408 605 491 550 q 252 822 298 678 q 138 448 140 656 m 450 932 q 418 924 433 932 q 381 842 381 903 q 383 819 381 831 q 477 696 395 745 q 595 657 539 659 q 579 765 591 715 q 450 932 542 926 z "},"":{"ha":868,"x_min":22,"x_max":907,"o":"m 366 1178 q 385 1219 367 1200 q 475 1306 391 1224 q 514 1324 492 1323 q 555 1306 537 1324 q 654 1209 652 1209 q 654 1209 654 1209 q 654 1209 654 1209 q 673 1169 672 1196 q 667 1148 673 1159 q 627 1125 652 1125 q 589 1143 606 1125 l 516 1217 l 450 1153 q 412 1135 433 1135 q 391 1140 402 1135 q 366 1178 366 1153 m 22 430 q 54 653 22 541 q 206 941 104 827 q 429 1059 312 1059 q 616 959 539 1059 q 708 677 697 852 q 774 705 730 685 q 857 732 829 732 q 882 725 870 732 q 907 682 907 710 q 883 632 906 656 q 706 559 833 583 q 680 412 700 484 q 528 117 633 232 q 301 0 422 0 q 271 2 286 0 q 98 126 167 17 q 22 430 22 248 m 138 448 q 173 233 138 325 q 313 111 220 111 q 361 122 336 111 q 500 272 435 156 q 592 549 574 401 q 408 605 491 550 q 252 822 298 678 q 138 448 140 656 m 450 932 q 418 924 433 932 q 381 842 381 903 q 383 819 381 831 q 477 696 395 745 q 595 657 539 659 q 579 765 591 715 q 450 932 542 926 z "},"":{"ha":868,"x_min":22,"x_max":907,"o":"m 656 1325 q 675 1320 666 1325 q 699 1282 699 1308 q 679 1225 699 1258 q 582 1167 646 1168 q 562 1169 572 1167 q 484 1215 524 1175 q 480 1219 482 1217 q 445 1240 459 1240 q 414 1204 424 1237 q 409 1188 413 1196 q 372 1166 397 1166 q 353 1171 362 1166 q 330 1208 330 1183 q 348 1267 330 1233 q 445 1325 383 1324 q 472 1321 458 1325 q 541 1277 499 1313 q 582 1251 570 1251 q 613 1286 603 1252 q 618 1301 614 1294 q 656 1325 631 1325 m 22 430 q 54 653 22 541 q 206 941 104 827 q 429 1059 312 1059 q 616 959 539 1059 q 708 677 697 852 q 774 705 730 685 q 857 732 829 732 q 882 725 870 732 q 907 682 907 710 q 883 632 906 656 q 706 559 833 583 q 680 412 700 484 q 528 117 633 232 q 301 0 422 0 q 271 2 286 0 q 98 126 167 17 q 22 430 22 248 m 138 448 q 173 233 138 325 q 313 111 220 111 q 361 122 336 111 q 500 272 435 156 q 592 549 574 401 q 408 605 491 550 q 252 822 298 678 q 138 448 140 656 m 450 932 q 418 924 433 932 q 381 842 381 903 q 383 819 381 831 q 477 696 395 745 q 595 657 539 659 q 579 765 591 715 q 450 932 542 926 z "},"":{"ha":868,"x_min":22,"x_max":907,"o":"m 389 1229 q 396 1254 389 1242 q 439 1279 410 1279 q 463 1273 451 1279 q 488 1229 488 1259 q 482 1205 488 1217 q 439 1179 469 1179 q 415 1185 427 1179 q 389 1229 389 1200 m 543 1227 q 549 1251 543 1239 q 592 1276 563 1276 q 616 1270 604 1276 q 642 1227 642 1257 q 636 1203 642 1215 q 592 1177 622 1177 q 568 1183 579 1177 q 543 1227 543 1197 m 22 430 q 54 653 22 541 q 206 941 104 827 q 429 1059 312 1059 q 616 959 539 1059 q 708 677 697 852 q 774 705 730 685 q 857 732 829 732 q 882 725 870 732 q 907 682 907 710 q 883 632 906 656 q 706 559 833 583 q 680 412 700 484 q 528 117 633 232 q 301 0 422 0 q 271 2 286 0 q 98 126 167 17 q 22 430 22 248 m 138 448 q 173 233 138 325 q 313 111 220 111 q 361 122 336 111 q 500 272 435 156 q 592 549 574 401 q 408 605 491 550 q 252 822 298 678 q 138 448 140 656 m 450 932 q 418 924 433 932 q 381 842 381 903 q 383 819 381 831 q 477 696 395 745 q 595 657 539 659 q 579 765 591 715 q 450 932 542 926 z "},"":{"ha":598,"x_min":117,"x_max":473,"o":"m 382 210 q 296 295 382 210 l 206 205 q 167 186 188 187 q 144 191 155 186 q 117 234 117 204 q 137 275 117 256 l 226 364 l 135 456 q 117 496 117 475 q 122 518 117 507 q 163 545 136 545 q 205 526 185 545 l 296 435 l 382 522 q 423 542 401 541 q 448 534 435 542 q 473 494 473 519 q 453 452 472 471 l 366 366 l 452 280 q 471 239 471 260 q 464 215 471 227 q 424 190 448 190 q 382 210 401 191 z "},"":{"ha":831,"x_min":48,"x_max":735,"o":"m 48 430 q 80 653 48 541 q 232 941 130 827 q 455 1059 338 1059 q 595 1008 533 1059 l 638 1087 q 684 1118 654 1117 q 707 1113 696 1118 q 734 1069 734 1099 q 726 1039 734 1055 l 665 926 q 735 632 735 808 q 707 413 735 522 q 555 117 659 233 q 327 0 449 0 q 193 47 252 0 q 155 -24 158 -18 q 109 -58 136 -57 q 87 -53 98 -58 q 58 -10 58 -39 q 68 22 58 5 l 69 26 q 75 36 71 29 q 83 51 78 42 q 94 72 87 60 q 107 98 100 84 q 123 127 115 111 q 121 130 122 128 q 48 430 48 251 m 168 528 q 162 441 162 480 q 191 254 162 338 l 539 903 q 445 947 497 946 q 403 938 425 947 q 266 805 331 909 q 168 528 188 680 m 249 151 q 338 111 286 111 q 420 142 378 111 q 556 332 497 200 q 623 623 623 481 q 597 799 623 718 l 249 151 z "},"":{"ha":884,"x_min":71,"x_max":807,"o":"m 582 1225 q 602 1182 601 1205 q 593 1156 602 1169 q 552 1135 576 1135 q 511 1154 532 1135 l 429 1235 q 410 1275 411 1252 q 417 1301 410 1289 q 458 1325 432 1325 q 509 1295 479 1325 q 582 1225 575 1230 m 687 56 q 687 54 687 55 q 631 0 679 0 q 604 8 616 0 q 576 66 576 26 q 582 125 576 74 q 513 52 555 83 q 351 0 439 0 q 320 2 336 0 q 147 126 216 17 q 71 430 71 248 q 136 969 71 606 q 140 994 140 989 q 146 1013 142 1003 q 193 1047 161 1047 q 218 1040 206 1047 q 248 994 245 1025 q 241 956 245 978 q 186 469 186 612 q 227 222 186 317 q 362 111 274 111 q 379 112 370 111 q 516 221 446 125 q 629 474 596 330 l 699 994 q 705 1018 699 1006 q 753 1047 720 1047 q 777 1040 766 1047 q 807 994 804 1025 q 789 851 799 932 q 687 56 689 65 z "},"":{"ha":884,"x_min":71,"x_max":807,"o":"m 580 1235 q 496 1153 558 1215 q 456 1135 477 1135 q 434 1141 445 1135 q 408 1184 408 1155 q 427 1225 408 1207 l 509 1305 q 550 1325 530 1324 q 574 1318 562 1325 q 600 1278 600 1303 q 580 1235 599 1255 m 687 56 q 687 54 687 55 q 631 0 679 0 q 604 8 616 0 q 576 66 576 26 q 582 125 576 74 q 513 52 555 83 q 351 0 439 0 q 320 2 336 0 q 147 126 216 17 q 71 430 71 248 q 136 969 71 606 q 140 994 140 989 q 146 1013 142 1003 q 193 1047 161 1047 q 218 1040 206 1047 q 248 994 245 1025 q 241 956 245 978 q 186 469 186 612 q 227 222 186 317 q 362 111 274 111 q 379 112 370 111 q 516 221 446 125 q 629 474 596 330 l 699 994 q 705 1018 699 1006 q 753 1047 720 1047 q 777 1040 766 1047 q 807 994 804 1025 q 789 851 799 932 q 687 56 689 65 z "},"":{"ha":884,"x_min":71,"x_max":807,"o":"m 345 1178 q 363 1219 345 1200 q 453 1306 370 1224 q 492 1324 471 1323 q 534 1306 515 1324 q 633 1209 631 1209 q 633 1209 633 1209 q 633 1209 633 1209 q 651 1169 650 1196 q 645 1148 651 1159 q 605 1125 631 1125 q 567 1143 585 1125 l 494 1217 l 429 1153 q 391 1135 411 1135 q 370 1140 380 1135 q 345 1178 345 1153 m 687 56 q 687 54 687 55 q 631 0 679 0 q 604 8 616 0 q 576 66 576 26 q 582 125 576 74 q 513 52 555 83 q 351 0 439 0 q 320 2 336 0 q 147 126 216 17 q 71 430 71 248 q 136 969 71 606 q 140 994 140 989 q 146 1013 142 1003 q 193 1047 161 1047 q 218 1040 206 1047 q 248 994 245 1025 q 241 956 245 978 q 186 469 186 612 q 227 222 186 317 q 362 111 274 111 q 379 112 370 111 q 516 221 446 125 q 629 474 596 330 l 699 994 q 705 1018 699 1006 q 753 1047 720 1047 q 777 1040 766 1047 q 807 994 804 1025 q 789 851 799 932 q 687 56 689 65 z "},"":{"ha":884,"x_min":71,"x_max":807,"o":"m 372 1275 q 379 1300 372 1288 q 422 1325 393 1325 q 446 1319 434 1325 q 471 1275 471 1305 q 465 1251 471 1263 q 422 1225 452 1225 q 398 1232 410 1225 q 372 1275 372 1246 m 526 1273 q 532 1297 526 1285 q 575 1322 546 1322 q 599 1316 587 1322 q 625 1273 625 1303 q 619 1249 625 1261 q 575 1223 605 1223 q 551 1230 562 1223 q 526 1273 526 1243 m 687 56 q 687 54 687 55 q 631 0 679 0 q 604 8 616 0 q 576 66 576 26 q 582 125 576 74 q 513 52 555 83 q 351 0 439 0 q 320 2 336 0 q 147 126 216 17 q 71 430 71 248 q 136 969 71 606 q 140 994 140 989 q 146 1013 142 1003 q 193 1047 161 1047 q 218 1040 206 1047 q 248 994 245 1025 q 241 956 245 978 q 186 469 186 612 q 227 222 186 317 q 362 111 274 111 q 379 112 370 111 q 516 221 446 125 q 629 474 596 330 l 699 994 q 705 1018 699 1006 q 753 1047 720 1047 q 777 1040 766 1047 q 807 994 804 1025 q 789 851 799 932 q 687 56 689 65 z "},"":{"ha":868,"x_min":-34,"x_max":802,"o":"m 587 1230 q 503 1148 565 1211 q 463 1130 484 1131 q 441 1136 452 1130 q 415 1179 415 1150 q 433 1220 415 1202 l 516 1301 q 557 1320 536 1320 q 581 1314 569 1320 q 606 1273 606 1299 q 587 1230 606 1250 m 748 1048 q 773 1042 761 1048 q 802 995 800 1027 q 679 40 690 111 q 581 -209 653 -111 q 279 -357 472 -357 q 133 -319 216 -357 q -28 -178 16 -264 q -34 -151 -34 -165 q -26 -124 -34 -137 q 20 -97 -10 -97 q 62 -119 45 -98 q 295 -252 163 -252 q 476 -161 400 -252 q 576 125 562 -56 q 509 54 550 84 q 346 1 435 1 q 315 3 331 1 q 142 127 211 18 q 66 431 66 249 q 74 602 66 514 q 136 995 87 741 q 140 1010 137 1003 q 189 1048 155 1048 q 216 1040 203 1048 q 243 997 243 1025 q 218 789 243 955 q 182 471 182 545 q 222 223 182 319 q 357 112 269 112 q 376 114 366 112 q 512 223 442 127 q 625 475 592 333 l 694 995 q 701 1018 695 1007 q 748 1048 715 1048 z "},"":{"ha":797,"x_min":113,"x_max":703,"o":"m 238 62 q 237 59 238 61 q 176 1 227 1 q 142 12 157 1 q 113 74 113 32 q 234 990 113 82 q 243 1019 235 1005 q 296 1049 260 1049 q 328 1040 313 1049 q 357 988 357 1021 l 336 823 q 414 828 410 828 q 523 817 474 828 q 703 605 703 779 q 600 350 703 454 q 255 188 483 232 q 243 95 250 150 q 238 62 239 67 m 273 323 q 275 323 273 323 q 442 382 363 335 q 580 603 580 464 q 414 711 579 710 q 321 705 376 711 l 273 323 z "},"":{"ha":535,"x_min":-40,"x_max":540,"o":"m 202 401 q 208 426 202 414 q 254 452 223 452 q 319 469 290 452 q 380 600 380 507 q 268 671 380 669 q 184 664 231 671 q 65 -256 71 -224 q 13 -311 56 -310 q -14 -303 -1 -311 q -40 -247 -40 -287 q 19 204 -27 -137 q 85 707 64 538 q 90 724 86 715 q 134 757 103 754 q 141 758 137 758 q 273 771 206 771 q 351 764 315 771 q 490 603 490 734 q 411 416 490 497 q 540 249 539 361 q 511 114 540 170 q 212 -11 444 -11 q 187 -5 199 -11 q 161 41 161 9 q 166 65 161 54 q 212 93 180 93 q 323 104 281 93 q 429 245 429 132 q 365 325 429 294 q 254 349 311 349 q 229 355 241 349 q 202 401 202 370 z "},"":{"ha":573,"x_min":23,"x_max":635,"o":"m 363 739 q 382 696 382 720 q 374 671 382 684 q 333 649 357 649 q 292 669 313 649 l 210 749 q 191 789 192 766 q 198 815 191 803 q 239 840 213 840 q 290 809 260 840 q 363 739 356 745 m 23 213 q 26 262 23 236 q 99 469 40 378 q 272 578 171 578 q 348 562 315 578 q 385 578 361 578 q 402 576 399 578 q 431 519 431 567 q 425 434 431 499 q 404 195 404 241 q 416 136 404 163 q 467 96 435 96 q 479 97 473 96 q 538 128 500 101 q 597 155 575 155 q 616 149 606 155 q 635 113 635 136 q 582 40 633 78 q 451 -3 520 -3 q 325 83 366 -3 q 303 60 315 71 q 167 -3 236 -3 q 92 19 123 -3 q 23 213 23 69 m 321 436 q 326 482 321 436 q 295 490 311 490 q 270 486 283 490 q 163 370 207 469 q 125 191 125 281 q 125 184 125 188 q 167 102 127 102 q 218 125 188 102 q 264 167 250 147 q 288 242 273 180 q 321 436 315 358 z "},"":{"ha":573,"x_min":23,"x_max":635,"o":"m 363 749 q 279 667 341 730 q 239 649 260 650 q 217 655 228 649 q 191 699 191 669 q 210 739 191 722 l 292 820 q 333 840 313 839 q 357 833 345 840 q 382 792 382 818 q 363 749 382 769 m 23 213 q 26 262 23 236 q 99 469 40 378 q 272 578 171 578 q 348 562 315 578 q 385 578 361 578 q 402 576 399 578 q 431 519 431 567 q 425 434 431 499 q 404 195 404 241 q 416 136 404 163 q 467 96 435 96 q 479 97 473 96 q 538 128 500 101 q 597 155 575 155 q 616 149 606 155 q 635 113 635 136 q 582 40 633 78 q 451 -3 520 -3 q 325 83 366 -3 q 303 60 315 71 q 167 -3 236 -3 q 92 19 123 -3 q 23 213 23 69 m 321 436 q 326 482 321 436 q 295 490 311 490 q 270 486 283 490 q 163 370 207 469 q 125 191 125 281 q 125 184 125 188 q 167 102 127 102 q 218 125 188 102 q 264 167 250 147 q 288 242 273 180 q 321 436 315 358 z "},"":{"ha":573,"x_min":23,"x_max":635,"o":"m 134 705 q 152 746 134 727 q 242 833 159 751 q 281 851 260 850 q 323 833 304 851 q 422 736 420 736 q 422 736 422 736 q 422 736 422 736 q 440 696 439 723 q 434 675 440 686 q 394 652 420 652 q 356 671 374 652 l 283 745 l 218 680 q 180 662 200 663 q 159 667 170 662 q 134 705 134 680 m 23 213 q 26 262 23 236 q 99 469 40 378 q 272 578 171 578 q 348 562 315 578 q 385 578 361 578 q 402 576 399 578 q 431 519 431 567 q 425 434 431 499 q 404 195 404 241 q 416 136 404 163 q 467 96 435 96 q 479 97 473 96 q 538 128 500 101 q 597 155 575 155 q 616 149 606 155 q 635 113 635 136 q 582 40 633 78 q 451 -3 520 -3 q 325 83 366 -3 q 303 60 315 71 q 167 -3 236 -3 q 92 19 123 -3 q 23 213 23 69 m 321 436 q 326 482 321 436 q 295 490 311 490 q 270 486 283 490 q 163 370 207 469 q 125 191 125 281 q 125 184 125 188 q 167 102 127 102 q 218 125 188 102 q 264 167 250 147 q 288 242 273 180 q 321 436 315 358 z "},"":{"ha":573,"x_min":23,"x_max":635,"o":"m 429 863 q 448 858 439 863 q 471 820 471 846 q 452 762 471 795 q 355 705 418 705 q 335 707 345 705 q 257 753 297 713 q 253 757 255 755 q 218 777 232 777 q 186 741 197 774 q 182 726 186 734 q 145 703 170 703 q 125 708 135 703 q 102 746 102 720 q 121 805 102 770 q 218 863 156 862 q 245 859 231 863 q 313 814 272 850 q 355 789 342 789 q 386 824 376 789 q 391 839 387 831 q 429 863 404 863 m 23 213 q 26 262 23 236 q 99 469 40 378 q 272 578 171 578 q 348 562 315 578 q 385 578 361 578 q 402 576 399 578 q 431 519 431 567 q 425 434 431 499 q 404 195 404 241 q 416 136 404 163 q 467 96 435 96 q 479 97 473 96 q 538 128 500 101 q 597 155 575 155 q 616 149 606 155 q 635 113 635 136 q 582 40 633 78 q 451 -3 520 -3 q 325 83 366 -3 q 303 60 315 71 q 167 -3 236 -3 q 92 19 123 -3 q 23 213 23 69 m 321 436 q 326 482 321 436 q 295 490 311 490 q 270 486 283 490 q 163 370 207 469 q 125 191 125 281 q 125 184 125 188 q 167 102 127 102 q 218 125 188 102 q 264 167 250 147 q 288 242 273 180 q 321 436 315 358 z "},"":{"ha":573,"x_min":23,"x_max":635,"o":"m 160 743 q 167 768 160 756 q 210 793 181 793 q 233 787 222 793 q 259 743 259 773 q 253 720 259 731 q 210 694 239 694 q 186 700 197 694 q 160 743 160 714 m 313 741 q 319 765 313 753 q 363 791 334 791 q 387 785 375 791 q 413 741 413 771 q 407 718 413 729 q 363 692 393 692 q 339 698 350 692 q 313 741 313 711 m 23 213 q 26 262 23 236 q 99 469 40 378 q 272 578 171 578 q 348 562 315 578 q 385 578 361 578 q 402 576 399 578 q 431 519 431 567 q 425 434 431 499 q 404 195 404 241 q 416 136 404 163 q 467 96 435 96 q 479 97 473 96 q 538 128 500 101 q 597 155 575 155 q 616 149 606 155 q 635 113 635 136 q 582 40 633 78 q 451 -3 520 -3 q 325 83 366 -3 q 303 60 315 71 q 167 -3 236 -3 q 92 19 123 -3 q 23 213 23 69 m 321 436 q 326 482 321 436 q 295 490 311 490 q 270 486 283 490 q 163 370 207 469 q 125 191 125 281 q 125 184 125 188 q 167 102 127 102 q 218 125 188 102 q 264 167 250 147 q 288 242 273 180 q 321 436 315 358 z "},"":{"ha":573,"x_min":23,"x_max":635,"o":"m 178 791 q 201 857 178 828 q 287 899 234 899 q 353 877 323 899 q 395 791 395 844 q 372 724 395 753 q 287 682 339 682 q 220 706 250 682 q 178 791 178 739 m 244 791 q 249 771 244 781 q 287 748 261 748 q 307 753 297 748 q 330 791 330 765 q 325 810 330 801 q 287 833 313 833 q 267 829 277 833 q 244 791 244 817 m 23 213 q 26 262 23 236 q 99 469 40 378 q 272 578 171 578 q 348 562 315 578 q 385 578 361 578 q 402 576 399 578 q 431 519 431 567 q 425 434 431 499 q 404 195 404 241 q 416 136 404 163 q 467 96 435 96 q 479 97 473 96 q 538 128 500 101 q 597 155 575 155 q 616 149 606 155 q 635 113 635 136 q 582 40 633 78 q 451 -3 520 -3 q 325 83 366 -3 q 303 60 315 71 q 167 -3 236 -3 q 92 19 123 -3 q 23 213 23 69 m 321 436 q 326 482 321 436 q 295 490 311 490 q 270 486 283 490 q 163 370 207 469 q 125 191 125 281 q 125 184 125 188 q 167 102 127 102 q 218 125 188 102 q 264 167 250 147 q 288 242 273 180 q 321 436 315 358 z "},"":{"ha":767,"x_min":41,"x_max":753,"o":"m 294 583 q 368 572 338 583 q 403 586 382 585 q 416 585 410 586 q 449 535 445 578 q 568 581 504 581 q 644 565 611 581 q 709 448 709 532 q 616 289 709 383 q 433 134 564 237 q 509 102 452 103 q 557 108 534 102 q 659 156 600 117 q 713 181 698 181 q 731 176 722 181 q 753 138 753 163 q 751 121 753 130 q 628 31 733 71 q 490 1 547 1 q 347 73 389 2 q 323 56 339 67 q 302 41 309 45 q 196 1 245 1 q 92 48 132 1 q 41 217 41 108 q 44 270 41 242 q 120 475 60 385 q 294 583 194 583 m 319 174 q 316 229 316 202 q 332 394 316 280 q 342 482 340 455 q 307 494 328 494 q 286 492 296 494 q 178 375 221 476 q 140 195 140 286 q 152 140 140 164 q 197 105 170 105 q 319 174 219 105 m 545 479 q 491 430 516 464 q 425 254 441 360 q 454 278 439 266 q 608 456 608 409 q 606 468 608 462 q 576 489 600 489 q 545 479 562 489 z "},"":{"ha":432,"x_min":17,"x_max":452,"o":"m 17 219 q 20 268 17 242 q 93 474 34 384 q 267 585 165 585 q 296 583 280 585 q 370 530 368 572 q 313 496 370 498 l 290 496 q 264 492 277 496 q 159 379 202 474 q 119 203 119 292 q 134 134 119 157 q 208 104 153 109 q 255 109 231 104 q 357 157 298 119 q 412 182 396 182 q 431 176 421 182 q 452 138 452 163 q 448 122 452 131 q 349 43 431 82 q 233 6 288 15 l 216 -20 q 226 -22 220 -20 q 307 -117 307 -41 q 298 -163 307 -142 q 193 -222 274 -222 q 145 -208 170 -222 q 104 -149 104 -183 q 104 -142 104 -145 q 129 -125 109 -125 q 158 -142 141 -125 q 190 -159 175 -159 q 212 -154 201 -159 q 236 -113 236 -141 q 231 -92 236 -102 q 190 -68 218 -68 q 171 -77 182 -68 q 144 -90 154 -90 q 137 -89 141 -90 q 121 -67 121 -83 q 128 -44 121 -55 l 159 4 q 17 219 18 21 z "},"":{"ha":445,"x_min":44,"x_max":478,"o":"m 407 741 q 427 699 426 722 q 418 673 427 686 q 377 651 401 651 q 336 671 357 651 l 254 751 q 235 791 236 768 q 242 817 235 805 q 283 842 257 842 q 334 811 304 842 q 407 741 400 747 m 44 208 q 47 256 44 231 q 120 463 61 372 q 293 573 192 573 q 345 566 320 573 q 435 440 435 541 q 434 425 435 433 q 353 272 427 334 q 182 211 279 211 q 146 214 164 211 q 145 186 145 204 q 159 125 145 146 q 234 92 177 97 q 283 98 259 92 q 385 146 326 108 q 438 171 422 171 q 456 165 447 171 q 478 128 478 153 q 475 111 478 120 q 365 27 456 66 q 216 -9 280 -9 q 170 -5 191 -9 q 44 208 44 20 m 262 467 q 165 309 200 425 q 197 305 182 305 q 296 340 254 305 q 342 430 342 378 q 309 483 342 482 q 262 467 286 482 z "},"":{"ha":445,"x_min":44,"x_max":478,"o":"m 420 749 q 336 667 399 730 q 297 649 317 650 q 275 655 286 649 q 249 699 249 669 q 267 739 249 722 l 350 820 q 391 840 370 839 q 414 833 403 840 q 440 792 440 818 q 420 749 439 769 m 44 208 q 47 256 44 231 q 120 463 61 372 q 293 573 192 573 q 345 566 320 573 q 435 440 435 541 q 434 425 435 433 q 353 272 427 334 q 182 211 279 211 q 146 214 164 211 q 145 186 145 204 q 159 125 145 146 q 234 92 177 97 q 283 98 259 92 q 385 146 326 108 q 438 171 422 171 q 456 165 447 171 q 478 128 478 153 q 475 111 478 120 q 365 27 456 66 q 216 -9 280 -9 q 170 -5 191 -9 q 44 208 44 20 m 262 467 q 165 309 200 425 q 197 305 182 305 q 296 340 254 305 q 342 430 342 378 q 309 483 342 482 q 262 467 286 482 z "},"":{"ha":445,"x_min":44,"x_max":491,"o":"m 184 705 q 203 746 185 727 q 293 833 210 751 q 332 851 311 850 q 374 833 355 851 q 473 736 471 736 q 473 736 473 736 q 473 736 473 736 q 491 696 490 723 q 485 675 491 686 q 445 652 471 652 q 407 671 425 652 l 334 745 l 269 680 q 231 662 251 663 q 210 667 220 662 q 184 705 184 680 m 44 208 q 47 256 44 231 q 120 463 61 372 q 293 573 192 573 q 345 566 320 573 q 435 440 435 541 q 434 425 435 433 q 353 272 427 334 q 182 211 279 211 q 146 214 164 211 q 145 186 145 204 q 159 125 145 146 q 234 92 177 97 q 283 98 259 92 q 385 146 326 108 q 438 171 422 171 q 456 165 447 171 q 478 128 478 153 q 475 111 478 120 q 365 27 456 66 q 216 -9 280 -9 q 170 -5 191 -9 q 44 208 44 20 m 262 467 q 165 309 200 425 q 197 305 182 305 q 296 340 254 305 q 342 430 342 378 q 309 483 342 482 q 262 467 286 482 z "},"":{"ha":445,"x_min":44,"x_max":478,"o":"m 193 743 q 200 768 193 756 q 243 793 214 793 q 267 787 255 793 q 292 743 292 773 q 286 720 292 731 q 243 694 273 694 q 219 700 231 694 q 193 743 193 714 m 347 741 q 353 765 347 753 q 396 791 367 791 q 420 785 408 791 q 446 741 446 771 q 440 718 446 729 q 396 692 426 692 q 372 698 383 692 q 347 741 347 711 m 44 208 q 47 256 44 231 q 120 463 61 372 q 293 573 192 573 q 345 566 320 573 q 435 440 435 541 q 434 425 435 433 q 353 272 427 334 q 182 211 279 211 q 146 214 164 211 q 145 186 145 204 q 159 125 145 146 q 234 92 177 97 q 283 98 259 92 q 385 146 326 108 q 438 171 422 171 q 456 165 447 171 q 478 128 478 153 q 475 111 478 120 q 365 27 456 66 q 216 -9 280 -9 q 170 -5 191 -9 q 44 208 44 20 m 262 467 q 165 309 200 425 q 197 305 182 305 q 296 340 254 305 q 342 430 342 378 q 309 483 342 482 q 262 467 286 482 z "},"":{"ha":263,"x_min":-8,"x_max":366,"o":"m 161 526 q 155 441 161 506 q 134 201 134 248 q 146 143 134 170 q 197 102 165 102 q 212 104 204 102 q 269 136 231 109 q 328 163 305 163 q 347 156 337 163 q 366 120 366 142 q 312 47 363 85 q 181 3 250 3 q 85 43 123 3 q 28 237 28 104 q 47 415 28 283 q 58 506 55 477 q 60 518 59 512 q 115 586 71 586 q 130 585 123 586 q 161 526 161 577 m 163 744 q 183 701 182 724 q 174 675 183 688 q 134 654 158 654 q 93 673 114 654 l 10 754 q -8 794 -7 771 q -1 820 -8 808 q 40 844 14 844 q 91 814 60 844 q 163 744 157 749 z "},"":{"ha":263,"x_min":28,"x_max":366,"o":"m 161 526 q 155 441 161 506 q 134 201 134 248 q 146 143 134 170 q 197 102 165 102 q 212 104 204 102 q 269 136 231 109 q 328 163 305 163 q 347 156 337 163 q 366 120 366 142 q 312 47 363 85 q 181 3 250 3 q 85 43 123 3 q 28 237 28 104 q 47 415 28 283 q 58 506 55 477 q 60 518 59 512 q 115 586 71 586 q 130 585 123 586 q 161 526 161 577 m 256 754 q 172 672 234 734 q 132 654 153 654 q 110 660 121 654 q 84 703 84 674 q 102 744 84 726 l 185 825 q 226 844 205 844 q 250 838 238 844 q 275 797 275 823 q 256 754 275 774 z "},"":{"ha":263,"x_min":-21,"x_max":366,"o":"m -21 705 q -3 746 -20 727 q 87 833 4 751 q 127 851 105 850 q 168 833 150 851 q 267 736 265 736 q 267 736 267 736 q 267 736 267 736 q 286 696 285 723 q 279 675 286 686 q 239 652 265 652 q 201 671 219 652 l 129 745 l 63 680 q 25 662 45 663 q 4 667 15 662 q -21 705 -21 680 m 161 526 q 155 441 161 506 q 134 201 134 248 q 146 143 134 170 q 197 102 165 102 q 212 104 204 102 q 269 136 231 109 q 328 163 305 163 q 347 156 337 163 q 366 120 366 142 q 312 47 363 85 q 181 3 250 3 q 85 43 123 3 q 28 237 28 104 q 47 415 28 283 q 58 506 55 477 q 60 518 59 512 q 115 586 71 586 q 130 585 123 586 q 161 526 161 577 z "},"":{"ha":263,"x_min":5,"x_max":366,"o":"m 161 526 q 155 441 161 506 q 134 201 134 248 q 146 143 134 170 q 197 102 165 102 q 212 104 204 102 q 269 136 231 109 q 328 163 305 163 q 347 156 337 163 q 366 120 366 142 q 312 47 363 85 q 181 3 250 3 q 85 43 123 3 q 28 237 28 104 q 47 415 28 283 q 58 506 55 477 q 60 518 59 512 q 115 586 71 586 q 130 585 123 586 q 161 526 161 577 m 5 743 q 12 768 5 756 q 55 793 26 793 q 79 787 67 793 q 104 743 104 773 q 98 720 104 731 q 55 694 85 694 q 31 700 43 694 q 5 743 5 714 m 159 741 q 165 765 159 753 q 208 791 179 791 q 232 785 220 791 q 258 741 258 771 q 252 718 258 729 q 208 692 238 692 q 184 698 195 692 q 159 741 159 711 z "},"":{"ha":477,"x_min":12,"x_max":554,"o":"m 153 795 q 313 854 153 795 q 313 857 313 856 q 256 942 299 942 q 190 922 233 942 q 169 918 180 918 q 147 923 158 918 q 122 964 122 935 q 149 1006 123 994 q 257 1036 209 1036 q 330 1015 298 1036 q 342 1006 336 1010 q 404 888 382 975 l 483 916 q 506 920 495 920 q 532 913 520 920 q 554 870 554 898 q 515 821 553 836 l 416 785 q 417 720 417 760 q 415 653 417 701 q 396 326 405 410 q 372 183 388 244 q 188 0 321 0 q 62 62 109 1 q 12 243 12 130 q 51 433 12 348 q 229 567 110 557 q 315 542 271 564 q 323 718 323 650 l 323 751 l 188 702 q 162 696 173 696 q 138 703 150 696 q 114 747 114 719 q 116 759 114 753 q 153 795 123 784 m 185 102 q 257 150 228 103 q 300 357 300 220 q 224 474 300 473 q 142 401 176 471 q 109 237 109 326 q 111 203 109 220 q 185 102 122 107 z "},"":{"ha":541,"x_min":20,"x_max":661,"o":"m 412 863 q 432 858 422 863 q 455 820 455 846 q 435 762 455 795 q 338 705 402 705 q 319 707 329 705 q 241 753 281 713 q 237 757 239 755 q 201 777 216 777 q 170 741 180 774 q 165 726 170 734 q 129 703 153 703 q 109 708 119 703 q 86 746 86 720 q 104 805 86 770 q 201 863 140 862 q 229 859 215 863 q 297 814 256 850 q 338 789 326 789 q 370 824 359 789 q 374 839 371 831 q 412 863 387 863 m 20 71 q 77 506 20 71 q 81 528 79 517 q 134 586 93 586 q 149 585 141 586 q 180 526 180 577 q 178 500 180 518 q 178 481 178 488 q 181 486 179 484 q 324 575 231 575 q 385 555 357 575 q 427 475 427 525 q 426 436 427 467 q 425 326 425 367 q 433 163 425 188 q 437 152 435 158 q 491 100 456 100 q 505 102 497 100 q 563 134 525 106 q 623 160 600 160 q 640 155 631 160 q 661 115 661 143 q 604 42 656 82 q 478 0 541 0 q 392 28 427 0 q 319 283 319 86 q 320 330 319 298 q 321 385 321 363 q 305 460 321 458 q 298 458 302 460 q 199 304 260 444 q 132 100 146 182 l 130 81 q 117 36 128 56 q 68 3 97 3 q 52 7 60 3 q 20 71 20 22 z "},"":{"ha":425,"x_min":13,"x_max":527,"o":"m 298 739 q 318 696 317 720 q 309 671 318 684 q 269 649 293 649 q 228 669 249 649 l 145 749 q 127 789 127 766 q 134 815 127 803 q 175 840 149 840 q 226 809 195 840 q 298 739 292 745 m 209 570 q 254 565 233 569 q 382 402 358 543 q 425 430 395 410 q 486 458 465 458 q 506 452 496 458 q 527 415 527 438 q 497 364 526 392 q 390 300 456 326 q 358 121 389 194 q 191 1 307 1 q 109 28 150 1 q 13 255 13 91 q 46 435 13 354 q 209 570 98 564 m 294 282 q 243 288 267 283 q 128 382 154 307 q 111 258 111 326 q 117 195 111 226 q 199 102 136 102 q 237 115 220 102 q 294 282 287 153 m 283 374 q 293 374 283 374 q 244 468 283 467 q 237 467 241 468 q 222 445 222 462 q 227 416 222 430 q 283 374 242 374 z "},"":{"ha":425,"x_min":13,"x_max":527,"o":"m 302 749 q 218 667 280 730 q 178 649 199 650 q 156 655 167 649 q 130 699 130 669 q 149 739 130 722 l 231 820 q 272 840 252 839 q 296 833 284 840 q 321 792 321 818 q 302 749 321 769 m 209 570 q 254 565 233 569 q 382 402 358 543 q 425 430 395 410 q 486 458 465 458 q 506 452 496 458 q 527 415 527 438 q 497 364 526 392 q 390 300 456 326 q 358 121 389 194 q 191 1 307 1 q 109 28 150 1 q 13 255 13 91 q 46 435 13 354 q 209 570 98 564 m 294 282 q 243 288 267 283 q 128 382 154 307 q 111 258 111 326 q 117 195 111 226 q 199 102 136 102 q 237 115 220 102 q 294 282 287 153 m 283 374 q 293 374 283 374 q 244 468 283 467 q 237 467 241 468 q 222 445 222 462 q 227 416 222 430 q 283 374 242 374 z "},"":{"ha":425,"x_min":13,"x_max":527,"o":"m 87 705 q 105 746 87 727 q 195 833 112 751 q 235 851 213 850 q 276 833 258 851 q 375 736 373 736 q 375 736 375 736 q 375 736 375 736 q 393 696 393 723 q 387 675 393 686 q 347 652 373 652 q 309 671 327 652 l 237 745 l 171 680 q 133 662 153 663 q 112 667 123 662 q 87 705 87 680 m 209 570 q 254 565 233 569 q 382 402 358 543 q 425 430 395 410 q 486 458 465 458 q 506 452 496 458 q 527 415 527 438 q 497 364 526 392 q 390 300 456 326 q 358 121 389 194 q 191 1 307 1 q 109 28 150 1 q 13 255 13 91 q 46 435 13 354 q 209 570 98 564 m 294 282 q 243 288 267 283 q 128 382 154 307 q 111 258 111 326 q 117 195 111 226 q 199 102 136 102 q 237 115 220 102 q 294 282 287 153 m 283 374 q 293 374 283 374 q 244 468 283 467 q 237 467 241 468 q 222 445 222 462 q 227 416 222 430 q 283 374 242 374 z "},"":{"ha":425,"x_min":13,"x_max":527,"o":"m 368 863 q 387 858 378 863 q 410 820 410 846 q 391 762 410 795 q 294 705 357 705 q 274 707 284 705 q 196 753 236 713 q 192 757 194 755 q 157 777 171 777 q 125 741 136 774 q 121 726 125 734 q 84 703 109 703 q 64 708 74 703 q 41 746 41 720 q 60 805 41 770 q 157 863 95 862 q 184 859 170 863 q 252 814 211 850 q 294 789 281 789 q 325 824 315 789 q 330 839 326 831 q 368 863 342 863 m 209 570 q 254 565 233 569 q 382 402 358 543 q 425 430 395 410 q 486 458 465 458 q 506 452 496 458 q 527 415 527 438 q 497 364 526 392 q 390 300 456 326 q 358 121 389 194 q 191 1 307 1 q 109 28 150 1 q 13 255 13 91 q 46 435 13 354 q 209 570 98 564 m 294 282 q 243 288 267 283 q 128 382 154 307 q 111 258 111 326 q 117 195 111 226 q 199 102 136 102 q 237 115 220 102 q 294 282 287 153 m 283 374 q 293 374 283 374 q 244 468 283 467 q 237 467 241 468 q 222 445 222 462 q 227 416 222 430 q 283 374 242 374 z "},"":{"ha":425,"x_min":13,"x_max":527,"o":"m 100 743 q 106 768 100 756 q 149 793 121 793 q 173 787 161 793 q 199 743 199 773 q 193 720 199 731 q 149 694 179 694 q 125 700 137 694 q 100 743 100 714 m 253 741 q 259 765 253 753 q 302 791 273 791 q 326 785 315 791 q 353 741 353 771 q 347 718 353 729 q 302 692 332 692 q 279 698 290 692 q 253 741 253 711 m 209 570 q 254 565 233 569 q 382 402 358 543 q 425 430 395 410 q 486 458 465 458 q 506 452 496 458 q 527 415 527 438 q 497 364 526 392 q 390 300 456 326 q 358 121 389 194 q 191 1 307 1 q 109 28 150 1 q 13 255 13 91 q 46 435 13 354 q 209 570 98 564 m 294 282 q 243 288 267 283 q 128 382 154 307 q 111 258 111 326 q 117 195 111 226 q 199 102 136 102 q 237 115 220 102 q 294 282 287 153 m 283 374 q 293 374 283 374 q 244 468 283 467 q 237 467 241 468 q 222 445 222 462 q 227 416 222 430 q 283 374 242 374 z "},"":{"ha":628,"x_min":81,"x_max":543,"o":"m 243 521 q 252 553 243 538 q 304 583 270 583 q 336 574 321 583 q 366 521 366 556 q 357 489 366 504 q 304 460 338 460 q 271 469 287 460 q 243 521 243 488 m 243 210 q 252 242 243 227 q 304 272 270 272 q 336 262 321 272 q 366 210 366 245 q 357 178 366 193 q 304 149 338 149 q 271 158 287 149 q 243 210 243 176 m 137 416 q 488 416 137 416 q 513 411 502 416 q 543 364 543 399 q 541 351 543 358 q 486 317 529 317 l 137 317 q 121 318 129 317 q 81 370 81 326 q 87 391 81 381 q 137 416 102 416 z "},"":{"ha":425,"x_min":-51,"x_max":453,"o":"m 0 -143 q -25 -137 -13 -143 q -51 -96 -51 -123 q -41 -64 -51 -82 l 43 92 q 9 255 9 157 q 45 442 9 358 q 214 570 101 570 q 286 553 254 570 l 357 687 q 402 718 374 717 q 429 711 417 718 q 453 669 452 696 q 445 639 453 654 q 357 476 431 610 q 387 330 387 412 l 387 304 q 353 115 387 192 q 193 1 302 1 q 115 22 151 1 q 46 -110 48 -104 q 0 -143 26 -142 m 210 476 q 134 410 161 475 q 107 258 107 347 q 110 221 107 247 l 241 469 q 210 476 229 476 m 195 102 q 234 116 216 102 q 292 307 288 157 q 290 351 292 336 l 163 111 q 195 102 178 102 z "},"":{"ha":527,"x_min":85,"x_max":716,"o":"m 374 739 q 393 696 393 720 q 385 671 393 684 q 344 649 368 649 q 303 669 324 649 l 220 749 q 202 789 203 766 q 209 815 202 803 q 250 840 224 840 q 301 809 271 840 q 374 739 367 745 m 392 367 q 406 522 397 408 q 407 532 406 528 q 459 576 415 575 q 464 576 461 576 q 500 519 500 572 q 498 478 500 505 q 496 460 496 466 q 484 227 484 276 q 486 192 484 210 q 547 106 497 106 q 561 107 553 106 q 618 139 581 112 q 678 166 656 166 q 695 161 687 166 q 716 121 716 148 q 715 115 716 119 q 659 48 711 83 q 534 5 596 5 q 414 82 450 6 q 250 8 354 9 q 204 14 226 8 q 85 275 85 50 q 109 494 85 384 q 112 505 111 499 q 172 580 133 580 q 221 527 220 579 q 215 479 221 516 q 191 259 191 327 q 263 117 191 118 q 392 367 356 117 z "},"":{"ha":527,"x_min":85,"x_max":716,"o":"m 431 749 q 347 667 410 730 q 308 649 328 650 q 286 655 296 649 q 260 699 260 669 q 278 739 260 722 l 361 820 q 401 840 381 839 q 425 833 414 840 q 451 792 451 818 q 431 749 450 769 m 392 367 q 406 522 397 408 q 407 532 406 528 q 459 576 415 575 q 464 576 461 576 q 500 519 500 572 q 498 478 500 505 q 496 460 496 466 q 484 227 484 276 q 486 192 484 210 q 547 106 497 106 q 561 107 553 106 q 618 139 581 112 q 678 166 656 166 q 695 161 687 166 q 716 121 716 148 q 715 115 716 119 q 659 48 711 83 q 534 5 596 5 q 414 82 450 6 q 250 8 354 9 q 204 14 226 8 q 85 275 85 50 q 109 494 85 384 q 112 505 111 499 q 172 580 133 580 q 221 527 220 579 q 215 479 221 516 q 191 259 191 327 q 263 117 191 118 q 392 367 356 117 z "},"":{"ha":527,"x_min":85,"x_max":716,"o":"m 172 705 q 190 746 172 727 q 280 833 197 751 q 319 851 298 850 q 361 833 342 851 q 460 736 458 736 q 460 736 460 736 q 460 736 460 736 q 478 696 477 723 q 472 675 478 686 q 432 652 458 652 q 394 671 412 652 l 321 745 l 256 680 q 218 662 238 663 q 197 667 208 662 q 172 705 172 680 m 392 367 q 406 522 397 408 q 407 532 406 528 q 459 576 415 575 q 464 576 461 576 q 500 519 500 572 q 498 478 500 505 q 496 460 496 466 q 484 227 484 276 q 486 192 484 210 q 547 106 497 106 q 561 107 553 106 q 618 139 581 112 q 678 166 656 166 q 695 161 687 166 q 716 121 716 148 q 715 115 716 119 q 659 48 711 83 q 534 5 596 5 q 414 82 450 6 q 250 8 354 9 q 204 14 226 8 q 85 275 85 50 q 109 494 85 384 q 112 505 111 499 q 172 580 133 580 q 221 527 220 579 q 215 479 221 516 q 191 259 191 327 q 263 117 191 118 q 392 367 356 117 z "},"":{"ha":527,"x_min":85,"x_max":716,"o":"m 201 743 q 208 768 201 756 q 250 793 222 793 q 274 787 262 793 q 300 743 300 773 q 294 720 300 731 q 250 694 280 694 q 227 700 238 694 q 201 743 201 714 m 354 741 q 360 765 354 753 q 404 791 374 791 q 427 785 416 791 q 454 741 454 771 q 448 718 454 729 q 404 692 433 692 q 380 698 391 692 q 354 741 354 711 m 392 367 q 406 522 397 408 q 407 532 406 528 q 459 576 415 575 q 464 576 461 576 q 500 519 500 572 q 498 478 500 505 q 496 460 496 466 q 484 227 484 276 q 486 192 484 210 q 547 106 497 106 q 561 107 553 106 q 618 139 581 112 q 678 166 656 166 q 695 161 687 166 q 716 121 716 148 q 715 115 716 119 q 659 48 711 83 q 534 5 596 5 q 414 82 450 6 q 250 8 354 9 q 204 14 226 8 q 85 275 85 50 q 109 494 85 384 q 112 505 111 499 q 172 580 133 580 q 221 527 220 579 q 215 479 221 516 q 191 259 191 327 q 263 117 191 118 q 392 367 356 117 z "},"":{"ha":547,"x_min":5,"x_max":657,"o":"m 349 749 q 265 667 328 730 q 226 649 246 650 q 203 655 214 649 q 178 699 178 669 q 196 739 178 722 l 279 820 q 319 840 299 839 q 343 833 332 840 q 369 792 369 818 q 349 749 368 769 m 115 581 q 160 528 159 581 q 155 484 160 518 q 132 265 132 333 q 206 117 132 119 q 237 128 222 119 q 332 389 300 169 q 344 515 340 446 q 345 524 345 522 q 346 532 345 528 q 397 578 354 578 q 413 575 405 578 q 444 517 444 564 q 443 502 444 511 q 443 494 443 496 l 374 -6 q 567 142 538 117 q 619 163 593 163 q 637 158 628 163 q 657 123 657 145 q 620 60 656 92 q 355 -148 551 2 l 325 -371 q 252 -492 313 -451 q 163 -521 208 -521 q 52 -474 100 -521 q 5 -369 5 -427 q 36 -269 5 -307 q 99 -214 52 -249 q 262 -91 105 -207 q 280 28 271 -30 q 189 9 241 9 q 143 16 165 9 q 24 277 24 52 q 48 494 25 389 q 115 581 67 576 m 229 -317 q 240 -234 229 -317 q 165 -292 170 -287 q 115 -361 116 -330 q 119 -383 115 -372 q 163 -413 131 -413 q 184 -409 175 -413 q 229 -317 218 -396 z "},"":{"ha":507,"x_min":-8,"x_max":467,"o":"m 467 368 q 464 319 467 345 q 391 113 450 203 q 218 2 319 2 q 151 14 180 2 q 103 -378 115 -239 q 90 -422 101 -403 q 40 -456 70 -456 q 26 -453 33 -456 q -8 -380 -8 -439 q 75 261 34 -55 q 165 959 162 928 q 178 1004 167 983 q 227 1036 198 1036 q 245 1032 236 1036 q 277 980 277 1018 l 221 549 q 323 585 272 584 q 397 563 366 585 q 467 368 467 513 m 189 272 q 163 98 189 272 q 167 97 165 98 q 195 91 191 91 q 220 94 208 91 q 326 212 283 113 q 366 390 366 301 q 365 407 366 398 q 323 479 361 479 q 273 458 303 479 q 226 414 242 435 q 222 406 224 411 q 189 272 201 361 z "},"":{"ha":547,"x_min":5,"x_max":657,"o":"m 147 743 q 154 768 147 756 q 197 793 168 793 q 220 787 209 793 q 246 743 246 773 q 240 720 246 731 q 197 694 227 694 q 173 700 184 694 q 147 743 147 714 m 300 741 q 307 765 300 753 q 350 791 321 791 q 374 785 362 791 q 400 741 400 771 q 394 718 400 729 q 350 692 380 692 q 326 698 337 692 q 300 741 300 711 m 115 581 q 160 528 159 581 q 155 484 160 518 q 132 265 132 333 q 206 117 132 119 q 237 128 222 119 q 332 389 300 169 q 344 515 340 446 q 345 524 345 522 q 346 532 345 528 q 397 578 354 578 q 413 575 405 578 q 444 517 444 564 q 443 502 444 511 q 443 494 443 496 l 374 -6 q 567 142 538 117 q 619 163 593 163 q 637 158 628 163 q 657 123 657 145 q 620 60 656 92 q 355 -148 551 2 l 325 -371 q 252 -492 313 -451 q 163 -521 208 -521 q 52 -474 100 -521 q 5 -369 5 -427 q 36 -269 5 -307 q 99 -214 52 -249 q 262 -91 105 -207 q 280 28 271 -30 q 189 9 241 9 q 143 16 165 9 q 24 277 24 52 q 48 494 25 389 q 115 581 67 576 m 229 -317 q 240 -234 229 -317 q 165 -292 170 -287 q 115 -361 116 -330 q 119 -383 115 -372 q 163 -413 131 -413 q 184 -409 175 -413 q 229 -317 218 -396 z "},"":{"ha":769,"x_min":33,"x_max":689,"o":"m 610 1270 q 591 1230 609 1249 q 501 1143 585 1225 q 463 1125 484 1126 q 420 1143 439 1125 q 368 1194 405 1158 q 321 1239 326 1236 q 303 1280 304 1257 q 310 1301 303 1291 q 349 1324 324 1324 q 387 1305 368 1324 l 460 1232 l 526 1296 q 564 1314 545 1314 q 585 1309 574 1314 q 610 1270 610 1296 m 583 810 q 547 877 568 847 q 430 947 494 947 q 347 916 389 947 q 209 718 267 859 q 149 433 149 573 q 192 210 149 299 q 323 111 240 111 q 410 146 362 111 q 538 309 484 202 q 542 317 539 313 q 587 344 557 344 q 614 337 602 344 q 642 290 642 321 q 635 263 642 278 q 530 106 591 171 q 312 0 429 0 q 282 2 297 0 q 109 126 178 17 q 33 430 33 248 q 64 650 33 538 q 215 940 113 825 q 440 1059 321 1059 q 537 1037 491 1059 q 684 853 635 988 q 689 828 689 840 q 682 801 689 814 q 635 774 665 774 q 583 810 604 776 z "},"":{"ha":432,"x_min":17,"x_max":452,"o":"m 381 798 q 363 758 380 776 q 273 670 356 752 q 234 652 255 653 q 192 670 210 652 q 139 722 176 685 q 93 766 97 763 q 75 807 75 785 q 81 829 75 818 q 121 851 96 851 q 159 832 139 851 l 231 759 l 297 823 q 335 842 316 841 q 356 836 345 842 q 381 798 381 823 m 17 219 q 20 268 17 242 q 93 474 34 384 q 267 585 165 585 q 296 583 280 585 q 370 530 368 572 q 313 496 370 498 l 290 496 q 264 492 277 496 q 159 379 202 474 q 119 203 119 292 q 134 134 119 157 q 208 104 153 109 q 255 109 231 104 q 357 157 298 119 q 412 182 396 182 q 431 176 421 182 q 452 138 452 163 q 448 122 452 131 q 349 43 431 82 q 186 2 261 2 q 17 219 18 3 z "},"":{"ha":263,"x_min":28,"x_max":366,"o":"m 161 526 q 155 441 161 506 q 134 201 134 248 q 146 143 134 170 q 197 102 165 102 q 212 104 204 102 q 269 136 231 109 q 328 163 305 163 q 347 156 337 163 q 366 120 366 142 q 312 47 363 85 q 181 3 250 3 q 85 43 123 3 q 28 237 28 104 q 47 415 28 283 q 58 506 55 477 q 60 518 59 512 q 115 586 71 586 q 130 585 123 586 q 161 526 161 577 z "},"":{"ha":868,"x_min":-34,"x_max":802,"o":"m 357 1181 q 363 1206 357 1194 q 406 1232 378 1232 q 430 1225 418 1232 q 456 1181 456 1211 q 450 1158 456 1169 q 406 1132 436 1132 q 382 1138 394 1132 q 357 1181 357 1152 m 510 1179 q 516 1203 510 1192 q 559 1229 530 1229 q 583 1223 572 1229 q 610 1179 610 1209 q 604 1156 610 1167 q 559 1130 589 1130 q 536 1136 547 1130 q 510 1179 510 1149 m 748 1048 q 773 1042 761 1048 q 802 995 800 1027 q 679 40 690 111 q 581 -209 653 -111 q 279 -357 472 -357 q 133 -319 216 -357 q -28 -178 16 -264 q -34 -151 -34 -165 q -26 -124 -34 -137 q 20 -97 -10 -97 q 62 -119 45 -98 q 295 -252 163 -252 q 476 -161 400 -252 q 576 125 562 -56 q 509 54 550 84 q 346 1 435 1 q 315 3 331 1 q 142 127 211 18 q 66 431 66 249 q 74 602 66 514 q 136 995 87 741 q 140 1010 137 1003 q 189 1048 155 1048 q 216 1040 203 1048 q 243 997 243 1025 q 218 789 243 955 q 182 471 182 545 q 222 223 182 319 q 357 112 269 112 q 376 114 366 112 q 512 223 442 127 q 625 475 592 333 l 694 995 q 701 1018 695 1007 q 748 1048 715 1048 z "},"":{"ha":579,"x_min":-83,"x_max":568,"o":"m 530 184 q 549 178 540 184 q 568 144 568 165 q 531 81 568 113 q 267 -125 431 -3 l 237 -351 q 170 -469 226 -429 q 74 -500 125 -500 q -36 -454 12 -500 q -83 -348 -83 -407 q -54 -249 -83 -288 q 10 -193 -37 -228 l 173 -71 l 260 505 l 188 505 q 172 507 180 505 q 132 558 132 515 q 138 581 132 570 q 188 604 153 604 l 270 604 q 271 616 270 608 q 271 626 271 623 q 248 761 271 676 q 231 874 231 827 q 269 987 231 943 q 277 996 273 991 q 391 1039 324 1039 q 503 991 456 1039 q 541 886 540 951 q 540 871 541 879 q 489 814 533 814 q 448 840 458 814 q 440 890 440 853 q 437 907 440 899 q 391 942 427 942 q 329 866 330 941 q 357 720 329 821 q 372 618 372 654 l 371 603 l 439 603 q 468 597 455 603 q 494 551 494 584 q 492 538 494 545 q 438 504 481 504 l 357 504 l 288 17 q 479 163 471 156 q 530 184 506 184 m 140 -296 q 151 -214 141 -280 q 59 -289 87 -262 q 26 -340 26 -319 q 31 -362 26 -352 q 74 -392 42 -392 q 96 -388 86 -392 q 140 -296 130 -375 z "},"":{"ha":792,"x_min":28,"x_max":774,"o":"m 113 448 q 143 663 113 448 l 84 663 q 65 665 75 663 q 28 716 28 674 q 34 739 28 728 q 84 762 50 762 q 90 762 85 762 q 157 762 127 762 l 186 970 q 192 1000 189 988 q 243 1050 205 1050 q 258 1049 251 1050 q 290 990 290 1042 q 262 761 290 970 l 336 761 q 363 755 351 761 q 391 709 391 743 q 389 696 391 703 q 334 662 377 662 l 248 662 q 195 206 195 261 q 208 148 195 175 q 258 107 227 107 q 302 127 281 107 q 408 385 358 180 q 416 424 414 411 q 445 543 428 477 q 495 579 460 578 q 522 576 509 578 q 707 460 636 558 q 774 252 774 369 q 711 58 774 141 q 652 22 684 22 q 627 33 639 22 q 609 71 609 50 q 612 89 609 79 q 621 104 612 89 q 670 262 669 182 q 669 280 670 271 q 601 429 663 368 q 529 471 562 469 q 503 362 522 444 q 431 136 468 216 q 395 81 417 106 q 242 8 333 8 q 132 65 174 9 q 88 212 88 124 q 113 448 88 283 z "},"":{"ha":960,"x_min":323,"x_max":629,"o":"m 323 705 q 341 746 323 727 q 431 833 348 751 q 471 851 449 850 q 512 833 494 851 q 611 736 609 736 q 611 736 611 736 q 611 736 611 736 q 629 696 629 723 q 623 675 629 686 q 583 652 609 652 q 545 671 563 652 l 473 745 l 407 680 q 369 662 389 663 q 348 667 359 662 q 323 705 323 680 z "},"":{"ha":960,"x_min":288,"x_max":595,"o":"m 595 798 q 576 758 594 776 q 486 670 570 752 q 448 652 469 653 q 406 670 424 652 q 353 722 390 685 q 307 766 311 763 q 288 807 289 785 q 295 829 288 818 q 334 851 309 851 q 372 832 353 851 l 445 759 l 511 823 q 549 842 530 841 q 570 836 559 842 q 595 798 595 823 z "},"":{"ha":359,"x_min":71,"x_max":288,"o":"m 180 682 q 113 706 142 682 q 71 791 71 739 q 74 804 71 797 q 104 823 82 823 q 117 821 110 823 q 137 791 137 812 q 142 770 137 781 q 180 748 154 748 q 198 752 189 748 q 222 791 222 764 q 225 804 222 797 q 255 823 233 823 q 268 821 261 823 q 288 791 288 812 q 264 724 288 753 q 180 682 231 682 z "},"":{"ha":334,"x_min":100,"x_max":223,"o":"m 100 673 q 109 706 100 691 q 161 736 127 736 q 193 726 178 736 q 223 673 223 709 q 214 642 223 657 q 161 612 197 612 q 130 621 144 612 q 100 673 100 639 z "},"":{"ha":960,"x_min":298,"x_max":515,"o":"m 298 791 q 321 857 298 828 q 407 899 354 899 q 473 877 444 899 q 515 791 515 844 q 492 724 515 753 q 407 682 459 682 q 340 706 370 682 q 298 791 298 739 m 364 791 q 369 771 364 781 q 407 748 381 748 q 427 753 417 748 q 450 791 450 765 q 445 810 450 801 q 407 833 433 833 q 387 829 397 833 q 364 791 364 817 z "},"":{"ha":960,"x_min":281,"x_max":479,"o":"m 385 -130 q 413 -115 397 -130 q 444 -98 430 -98 q 455 -100 449 -98 q 479 -132 479 -106 q 454 -178 479 -157 q 387 -202 422 -202 q 320 -178 350 -202 q 281 -98 281 -147 q 283 -81 281 -90 q 344 23 292 -43 q 374 39 353 39 q 389 36 382 39 q 410 2 410 26 q 401 -21 410 -11 q 351 -98 352 -75 q 354 -111 351 -105 q 385 -130 363 -130 z "},"":{"ha":701,"x_min":260,"x_max":629,"o":"m 587 863 q 606 858 597 863 q 629 820 629 846 q 610 762 629 795 q 513 705 576 705 q 493 707 503 705 q 415 753 455 713 q 411 757 413 755 q 376 777 390 777 q 345 741 355 774 q 340 726 344 734 q 303 703 328 703 q 283 708 293 703 q 260 746 260 720 q 279 805 260 770 q 376 863 314 862 q 403 859 389 863 q 471 814 430 850 q 513 789 500 789 q 544 824 534 789 q 549 839 545 831 q 587 863 562 863 z "},"":{"ha":509,"x_min":42,"x_max":460,"o":"m 105 646 l 42 700 l 164 882 l 239 825 l 105 646 m 326 646 l 263 700 l 385 882 l 460 825 l 326 646 z "},"":{"ha":1039,"x_min":22,"x_max":1049,"o":"m 22 218 q 25 267 22 241 q 97 473 39 382 q 266 583 168 583 q 349 562 312 583 q 412 450 412 525 q 412 433 412 441 q 302 261 404 321 q 160 221 234 221 q 124 224 142 221 q 122 197 122 211 q 130 153 122 173 q 210 102 149 102 q 374 164 290 102 q 555 380 475 239 q 544 385 549 382 q 473 512 473 425 q 488 567 473 541 q 582 618 517 618 q 645 600 616 618 q 694 517 694 570 q 685 458 694 494 q 738 491 704 467 q 793 517 776 517 q 831 505 814 517 q 851 480 851 492 q 846 459 851 476 q 810 254 810 334 q 826 139 810 182 q 881 87 846 87 q 949 117 901 90 q 1011 145 991 145 q 1031 138 1021 145 q 1049 107 1049 125 q 996 31 1047 70 q 867 -14 935 -14 q 850 -13 859 -14 q 739 74 774 -3 q 713 229 713 119 q 715 273 713 250 q 728 382 719 347 q 650 363 694 366 q 496 142 592 237 q 194 1 353 1 q 183 1 189 1 q 22 218 22 8 m 240 477 q 237 475 239 477 q 142 319 176 433 q 174 317 157 317 q 275 351 232 317 q 321 440 321 389 q 320 454 321 447 q 288 494 315 493 q 240 477 262 491 m 555 507 q 593 456 555 473 q 609 507 608 491 q 608 516 609 511 q 583 534 603 534 q 574 533 578 534 q 555 507 555 528 z "},"":{"ha":955,"x_min":28,"x_max":935,"o":"m 606 545 q 656 581 621 581 q 684 578 670 581 q 869 463 798 560 q 935 254 935 371 q 873 60 935 143 q 814 24 846 24 q 788 35 800 24 q 770 73 770 52 q 774 91 770 81 q 782 106 774 91 q 831 264 831 184 q 831 283 831 273 q 762 431 824 370 q 690 473 723 472 q 669 400 686 442 q 529 167 621 271 q 196 -2 380 -2 q 147 3 170 -2 q 28 214 28 34 q 31 263 28 237 q 104 469 45 379 q 278 580 177 580 q 357 559 322 580 q 419 446 419 524 q 418 429 419 438 q 309 258 411 317 q 167 218 241 218 q 131 221 149 218 q 130 193 130 211 q 135 152 130 170 q 218 100 151 100 q 295 113 257 100 q 522 337 421 157 q 606 545 582 446 m 254 478 q 237 467 246 473 q 149 315 180 422 q 180 313 163 313 q 281 347 238 313 q 328 437 328 385 q 328 446 328 441 q 294 491 323 490 q 254 478 277 491 z "},"":{"ha":713,"x_min":133,"x_max":595,"o":"m 190 348 q 540 348 190 348 q 566 343 554 348 q 595 296 595 332 q 594 288 595 292 q 539 249 584 249 l 190 249 q 172 251 180 249 q 133 302 133 260 q 139 324 133 314 q 190 348 155 348 z "},"":{"ha":1244,"x_min":136,"x_max":1097,"o":"m 193 348 q 1041 348 193 348 q 1067 343 1055 348 q 1097 296 1097 332 q 1095 288 1096 292 q 1040 249 1085 249 l 193 249 q 176 250 184 249 q 136 302 136 258 q 142 323 136 313 q 193 348 157 348 z "},"":{"ha":405,"x_min":133,"x_max":271,"o":"m 258 733 q 249 701 258 715 q 197 671 231 671 q 164 680 179 671 q 133 742 133 701 q 148 812 133 781 q 246 875 178 875 q 271 852 269 874 q 245 825 270 833 q 234 822 239 824 q 205 794 207 812 q 227 787 216 792 q 258 733 258 769 z "},"":{"ha":428,"x_min":157,"x_max":294,"o":"m 170 814 q 178 846 170 831 q 231 876 197 876 q 263 867 248 876 q 294 804 294 846 q 278 733 294 766 q 181 672 248 672 q 157 695 158 673 q 182 722 157 714 q 195 726 189 724 q 221 753 220 734 q 200 760 210 755 q 170 814 170 778 z "},"":{"ha":581,"x_min":216,"x_max":353,"o":"m 229 61 q 237 94 229 79 q 290 123 256 123 q 322 114 307 123 q 353 52 353 94 q 337 -20 353 13 q 240 -81 307 -81 q 216 -58 217 -80 q 241 -31 216 -39 q 254 -27 248 -29 q 280 0 279 -18 q 259 7 269 2 q 229 61 229 25 z "},"":{"ha":492,"x_min":74,"x_max":385,"o":"m 198 62 q 189 30 198 45 q 137 0 171 0 q 104 10 119 0 q 74 71 74 31 q 89 142 74 111 q 186 204 119 204 q 211 181 210 203 q 186 155 210 164 q 175 151 180 153 q 146 123 148 142 q 168 116 157 121 q 198 62 198 98 m 372 62 q 363 30 372 45 q 311 0 345 0 q 280 9 294 0 q 248 71 248 28 q 263 142 248 110 q 361 204 292 204 q 385 181 384 203 q 359 155 384 164 q 350 152 355 153 q 321 123 321 142 q 342 116 332 121 q 372 62 372 98 z "},"":{"ha":521,"x_min":140,"x_max":451,"o":"m 153 814 q 161 846 153 831 q 214 876 180 876 q 246 867 231 876 q 277 804 277 846 q 261 733 277 766 q 164 672 231 672 q 140 695 141 673 q 165 722 140 714 q 178 726 172 724 q 204 753 203 734 q 183 760 193 755 q 153 814 153 778 m 326 814 q 335 846 326 831 q 387 876 353 876 q 420 867 405 876 q 451 804 451 847 q 436 734 451 766 q 338 672 406 672 q 314 695 315 673 q 339 722 315 714 q 352 726 346 724 q 378 753 377 734 q 357 761 367 755 q 326 814 326 779 z "},"":{"ha":492,"x_min":74,"x_max":385,"o":"m 87 61 q 96 94 87 79 q 148 123 114 123 q 180 115 165 123 q 211 52 211 95 q 197 -18 211 14 q 98 -81 168 -81 q 74 -58 75 -80 q 100 -31 75 -39 q 111 -28 106 -29 q 138 0 138 -18 q 117 7 127 2 q 87 61 87 25 m 261 61 q 270 94 261 79 q 322 123 288 123 q 355 114 340 123 q 385 52 385 94 q 370 -20 385 13 q 273 -81 340 -81 q 248 -58 250 -80 q 273 -31 249 -39 q 286 -27 280 -29 q 313 0 311 -18 q 292 7 302 2 q 261 61 261 25 z "},"":{"ha":541,"x_min":87,"x_max":452,"o":"m 144 347 q 221 347 144 347 l 221 743 q 223 762 221 752 q 275 799 233 799 q 297 792 287 799 q 321 743 321 777 l 321 347 l 397 347 q 424 342 412 347 q 452 295 452 330 q 449 281 452 289 q 395 248 437 248 l 321 248 l 321 0 q 315 -29 321 -16 q 269 -56 301 -56 q 260 -54 264 -55 q 221 1 221 -44 l 221 248 l 144 248 q 125 250 134 248 q 87 301 87 259 q 94 324 87 313 q 144 347 111 347 z "},"":{"ha":541,"x_min":87,"x_max":452,"o":"m 144 444 q 221 444 144 444 l 221 743 q 223 762 221 752 q 275 799 233 799 q 297 792 287 799 q 321 743 321 777 l 321 444 l 397 444 q 422 439 411 444 q 452 392 452 427 q 449 378 452 386 q 395 345 437 345 l 321 345 l 321 226 l 397 226 q 422 221 411 226 q 452 174 452 209 q 449 161 452 168 q 395 127 437 127 l 321 127 l 321 0 q 315 -29 321 -16 q 269 -56 301 -56 q 260 -54 264 -55 q 221 1 221 -44 l 221 127 l 144 127 q 127 128 136 127 q 87 180 87 136 q 94 203 87 192 q 144 226 111 226 l 221 226 l 221 345 l 144 345 q 124 347 134 345 q 87 397 87 357 q 94 420 87 410 q 144 444 109 444 z "},"":{"ha":608,"x_min":158,"x_max":441,"o":"m 158 359 q 193 452 158 412 q 298 501 235 501 q 391 467 351 501 q 441 359 441 425 q 406 268 441 308 q 298 219 363 219 q 207 254 247 219 q 158 359 158 296 z "},"":{"ha":709,"x_min":189,"x_max":640,"o":"m 189 61 q 198 94 189 79 q 250 123 216 123 q 282 115 267 123 q 312 61 312 97 q 303 30 312 45 q 250 0 286 0 q 218 9 233 0 q 189 61 189 28 m 353 61 q 361 94 353 79 q 414 123 380 123 q 446 114 431 123 q 476 61 476 96 q 467 29 476 44 q 414 0 448 0 q 381 9 397 0 q 353 61 353 28 m 516 61 q 525 94 516 79 q 577 123 543 123 q 610 114 595 123 q 640 61 640 96 q 630 29 640 44 q 577 0 612 0 q 545 9 560 0 q 516 61 516 28 z "},"":{"ha":1592,"x_min":115,"x_max":1497,"o":"m 115 741 q 176 936 116 855 q 309 1008 231 1008 q 442 935 385 1007 q 501 741 501 856 q 441 548 500 628 q 309 476 386 476 q 174 550 232 477 q 115 741 115 628 m 216 741 q 240 631 216 678 q 309 576 268 576 q 364 608 339 577 q 402 741 402 658 q 378 853 402 806 q 309 907 351 907 q 255 877 279 907 q 216 741 216 828 m 664 267 q 725 462 665 380 q 858 534 781 534 q 992 458 934 532 q 1050 267 1050 380 q 990 73 1050 154 q 858 1 935 1 q 724 75 781 2 q 664 267 664 153 m 764 267 q 788 156 764 203 q 858 102 816 102 q 912 133 888 102 q 951 267 951 182 q 927 378 951 331 q 858 432 899 432 q 803 401 828 431 q 764 267 764 353 m 305 67 q 787 974 305 67 q 793 982 789 978 q 833 1003 809 1003 q 846 1002 840 1003 q 878 957 878 994 q 870 927 878 943 q 857 903 867 920 q 390 24 401 53 q 345 -5 371 -4 q 323 0 334 -5 q 298 37 298 12 q 305 67 298 49 m 1110 267 q 1171 462 1112 380 q 1304 534 1227 534 q 1438 458 1380 532 q 1497 267 1497 380 q 1436 73 1496 154 q 1304 1 1381 1 q 1170 75 1227 2 q 1110 267 1110 153 m 1211 267 q 1234 156 1211 203 q 1304 102 1262 102 q 1358 133 1334 102 q 1397 267 1397 182 q 1373 378 1397 331 q 1304 432 1345 432 q 1249 401 1274 431 q 1211 267 1211 353 z "},"":{"ha":707,"x_min":10,"x_max":450,"o":"m 10 356 q 39 409 10 388 l 355 633 q 387 642 371 642 q 420 633 405 642 q 450 580 450 615 q 415 524 449 551 l 184 356 q 408 191 273 298 q 413 186 411 188 q 450 129 450 157 q 440 97 450 112 q 387 68 422 68 q 349 81 368 68 l 39 304 q 10 356 12 324 z "},"":{"ha":728,"x_min":277,"x_max":716,"o":"m 716 356 q 687 304 716 325 l 377 81 q 339 68 360 68 q 307 77 321 68 q 277 129 277 95 q 310 184 277 158 q 315 188 311 186 q 542 356 470 309 l 311 524 q 277 580 277 550 q 286 612 277 597 q 339 642 304 642 q 371 633 355 642 l 687 409 q 716 356 715 389 z "},"":{"ha":848,"x_min":164,"x_max":750,"o":"m 174 79 q 654 985 174 79 q 699 1016 671 1015 q 723 1010 711 1016 q 750 966 750 996 q 742 936 750 954 q 684 827 732 919 q 261 33 277 69 q 215 0 241 1 q 193 5 204 0 q 164 47 164 18 q 174 79 164 63 z "},"":{"ha":863,"x_min":267,"x_max":605,"o":"m 267 758 q 267 769 267 758 l 301 1017 q 304 1029 302 1023 q 351 1064 315 1064 q 375 1057 363 1064 q 402 1015 402 1042 q 401 995 402 1006 q 387 886 401 975 l 376 806 l 499 806 q 504 838 504 832 q 508 856 505 847 q 555 886 521 886 q 580 878 568 886 q 605 838 605 863 l 573 574 q 522 524 566 525 q 497 530 508 524 q 471 581 471 545 q 473 600 471 583 q 486 705 479 648 l 318 705 q 292 711 304 705 q 267 758 267 724 z "},"":{"ha":960,"x_min":619,"x_max":924,"o":"m 771 521 q 872 479 828 521 q 921 370 921 434 q 878 265 921 321 q 878 264 878 264 q 759 94 872 256 l 873 94 q 899 90 887 94 q 924 48 924 78 q 923 37 924 43 q 871 -1 914 -1 l 673 -1 q 655 1 664 -1 q 619 50 619 10 q 634 86 621 71 q 648 104 637 89 q 806 325 742 230 q 808 329 807 327 q 825 370 825 355 q 817 397 825 384 q 774 425 800 425 q 747 418 760 425 q 720 370 720 402 q 733 333 720 348 q 748 300 747 317 q 743 280 748 290 q 700 257 731 257 q 644 294 667 258 q 621 370 621 331 q 661 472 621 428 q 771 521 706 521 z "},"":{"ha":863,"x_min":641,"x_max":979,"o":"m 641 245 l 674 494 q 677 507 675 500 q 725 541 689 541 q 749 534 737 541 q 776 491 776 519 q 766 397 776 460 q 761 363 762 374 l 749 282 l 873 282 q 878 315 876 307 q 882 332 878 323 q 928 362 895 362 q 954 355 941 362 q 979 315 979 340 l 979 309 l 947 51 q 896 1 938 2 q 871 7 882 1 q 844 58 844 22 q 847 83 844 60 q 860 181 853 130 l 692 181 q 666 187 677 181 q 641 234 641 201 l 641 245 z "},"":{"ha":960,"x_min":35,"x_max":863,"o":"m 848 728 q 863 695 863 715 q 857 673 863 684 q 817 649 844 649 q 787 663 802 649 q 765 681 777 672 q 565 749 677 749 q 376 686 463 749 q 258 536 292 625 l 751 536 q 772 530 762 536 q 797 490 797 517 q 791 468 797 479 q 751 444 778 444 l 240 444 q 239 420 239 436 q 242 379 239 401 l 699 379 q 718 374 709 379 q 743 333 743 363 q 739 313 743 322 q 699 287 726 287 l 269 287 q 370 163 304 213 q 565 98 459 98 q 749 155 667 98 q 776 163 760 163 q 796 159 786 163 q 822 119 822 146 q 802 81 821 94 q 563 7 695 7 q 328 79 433 7 q 170 287 217 156 l 81 287 q 59 292 70 287 q 35 333 35 306 q 40 355 35 345 q 81 379 53 379 l 150 379 q 148 444 148 392 l 81 444 q 59 449 70 444 q 35 490 35 463 q 40 511 35 501 q 81 536 53 536 l 163 536 q 173 568 163 541 q 275 727 205 660 q 568 840 393 840 q 599 839 583 840 q 848 728 743 828 z "},"":{"ha":752,"x_min":144,"x_max":631,"o":"m 201 416 q 575 416 201 416 q 603 410 591 416 q 631 364 631 397 q 629 355 630 360 q 574 317 619 317 l 201 317 q 182 319 191 317 q 144 370 144 328 q 150 392 144 382 q 201 416 165 416 z "},"":{"ha":849,"x_min":164,"x_max":749,"o":"m 173 79 q 654 985 173 79 q 699 1016 671 1015 q 722 1010 711 1016 q 749 966 749 996 q 741 936 749 951 l 260 33 q 214 0 242 1 q 192 5 203 0 q 164 47 164 18 q 173 79 164 62 z "}}}
